<?xml version="1.0" encoding="utf-8"?>
<!-- Generator: Adobe Illustrator 27.1.1, SVG Export Plug-In . SVG Version: 6.00 Build 0)  -->
<svg version="1.1" id="Layer_1" xmlns="http://www.w3.org/2000/svg" xmlns:xlink="http://www.w3.org/1999/xlink" x="0px" y="0px"
	 viewBox="0 0 1080 1080" style="enable-background:new 0 0 1080 1080;" xml:space="preserve">
<style type="text/css">
	.st0{clip-path:url(#SVGID_00000133492728057598240260000004867268965940590757_);fill:#2A232B;}
	.st1{clip-path:url(#SVGID_00000133492728057598240260000004867268965940590757_);fill:#FFD369;}
	.st2{clip-path:url(#SVGID_00000133492728057598240260000004867268965940590757_);}
	.st3{fill:#F0C7B1;}
	.st4{opacity:0.65;fill:#D19271;enable-background:new    ;}
	.st5{fill:#D19271;}
	.st6{fill:#C27B55;}
	.st7{fill:#FFD369;}
	.st8{fill:#D6D6D6;}
	.st9{fill:#E0AD30;}
	.st10{fill:#E1AC8F;}
	.st11{fill:#FFFFFF;}
	.st12{fill:#DA7C87;}
	.st13{fill:#4E60A3;}
	.st14{fill:#2A232B;}
	.st15{fill:#3A353A;}
	.st16{fill:#1B141C;}
	.st17{fill:#F8D5C3;}
</style>
<g>
	<defs>
		<rect id="SVGID_1_" width="1080" height="1080"/>
	</defs>
	<clipPath id="SVGID_00000179626380601971094110000016280124797666175628_">
		<use xlink:href="#SVGID_1_"  style="overflow:visible;"/>
	</clipPath>
	<polygon style="clip-path:url(#SVGID_00000179626380601971094110000016280124797666175628_);fill:#2A232B;" points="0,1080 1080,0 
		1080,1080 	"/>
	<polygon style="clip-path:url(#SVGID_00000179626380601971094110000016280124797666175628_);fill:#FFD369;" points="1080,0 0,1080 
		0,0 	"/>
	
		<g id="svga-group-wrapper_00000124845805481726237510000008258078405097538228_" style="clip-path:url(#SVGID_00000179626380601971094110000016280124797666175628_);">
		<g id="svga-group-backs-single_00000140726440538430552540000001505482545905361341_">
		</g>
		<g id="svga-group-humanwrap-move_00000165929505543744569370000016856104617805518498_" transform="matrix(1,0,0,1,0,-6)">
			
				<g id="svga-group-humanwrap_00000183229596135215135390000009874220357382962576_" transform="matrix(0.8999995000000002,0,0,0.8999995000000002,9.950051466622341,12.421593594168641)">
				<g id="svga-group-hair-back-move_00000149349985123406952310000009408402499319422348_" transform="matrix(1,0,0,1,0,0)">
					<g id="svga-group-hair-back_00000152243466860310130590000016037401933146572976_" transform="matrix(1,0,0,1,0,0)">
					</g>
				</g>
				<g id="svga-group-humanbody-back_00000012449873942875843890000006478146061153017004_">
					<path id="SvgjsPath3473_00000081608219112923428030000013623678127019233166_" class="st3" d="M1019.9,1034.7
						c-71.2-43.1-180.3-54.9-228.7-79c-32-16.3-59.4-30.7-58.1-116.3s12.4-277,12.4-277H424.8c0,0,10.5,192.1,12.4,277
						S409.7,941.3,379,955.6c-48.3,22.9-157.4,35.3-228.7,79C79.8,1077.8,85,1158.2,85,1158.2v128.7h1001.5v-128.7
						C1085.9,1158.2,1091.1,1077.8,1019.9,1034.7L1019.9,1034.7z"/>
				</g>
				<g id="svga-group-chinshadow-single_00000082344270099510018990000002067875409856396673_">
					<path id="SvgjsPath3931_00000144338699980245099820000004464892028699726765_" class="st4" d="M436.5,870.1
						c45.7,34.6,104.5,72.5,149,72.5c44.4,0,103.2-37.9,149-71.9c-0.7-9.1-1.3-19.6-1.3-31.4c1.3-85.6,12.4-277,12.4-277H424.8
						c0,0,10.5,192.1,12.4,277C437.2,851.1,437.2,860.9,436.5,870.1L436.5,870.1z"/>
				</g>
				<g id="svga-group-humanbody-front_00000093899917498339134330000010410062531471480255_">
					<path id="SvgjsPath3474_00000094599439997508456820000015165078951365207444_" class="st5" d="M446.3,875.9
						c3.3,31.4,11.1,61.4,20.3,90.8c5.2,15,10.5,30.1,17,45.1c5.2,13.1,11.1,27.4,20.3,38.5c2,2.6,6.5,0,5.9-3.3
						c-3.3-14.4-10.5-28.1-15.7-41.8c-5.9-14.4-11.1-28.7-16.3-43.1c-9.8-28.7-18.3-58.1-26.8-86.9
						C449.6,872.7,445.7,873.3,446.3,875.9L446.3,875.9z M716.1,869.4c-8.5,53.6-25.5,105.2-35.3,158.1c-0.7,2.6,2.6,3.3,3.9,1.3
						c20.3-50.3,26.8-105.2,33.3-158.8C717.4,868.7,716.1,868.7,716.1,869.4L716.1,869.4z M547.6,947.1
						c-5.9,23.5,12.4,56.2,40.5,49.7c3.3-0.7,2.6-5.2,0-6.5c-9.1-3.3-18.9-5.9-25.5-13.7c-7.2-7.8-9.8-18.9-9.1-29.4
						C553.5,944.5,548.2,943.9,547.6,947.1L547.6,947.1z"/>
					<path id="SvgjsPath3475_00000142163827019944633700000009220212560009507007_" class="st6" d="M1090.5,1286.9
						c-0.7-43.1-2-85.6-2-128.7l-2-2c0.7,0,0.7,0,1.3,0.7s0.7,1.3,0.7,0.7v-9.1c0-3.3-0.7-5.9-0.7-9.1c-0.7-5.9-2-12.4-3.3-18.3
						c-3.3-11.8-7.2-23.5-13.1-34.6c-11.1-22.2-28.7-40.5-50.3-52.9c-23.5-14.4-49.7-24.8-75.8-33.3c-26.1-8.5-52.9-15.7-79-22.9
						c-26.1-7.8-52.9-14.4-77.1-27.4c-12.4-6.5-23.5-13.7-31.4-23.5c-7.8-10.5-12.4-22.9-15-35.9c-5.2-26.1-2.6-53.6-2-81l4.6-82.3
						l9.8-164.6l0.7-9.1h-9.1c-53.6,0-107.1,0-160.7,0.7l-160.7,2h-5.9l0.7,5.9c5.2,77.7,10.5,155.5,13.7,233.2
						c0.7,19.6,2,39.2,1.3,58.1c-0.7,18.9-2.6,38.5-10.5,56.2c-3.9,8.5-9.1,16.3-15.7,22.9c-6.5,6.5-15,11.8-23.5,15.7
						c-17,8.5-35.3,14.4-54.2,19.6c-37.9,9.8-75.8,18.3-113,30.7c-18.3,5.9-37.2,13.1-54.9,22.2c-8.5,4.6-17.6,9.1-26.1,15.7
						c-8.5,5.9-15.7,12.4-22.9,20.3c-13.7,15-23.5,34-29.4,52.9c-3.3,9.8-5.2,19.6-6.5,30.1c-0.7,5.2-0.7,10.5-0.7,15.7v15
						l-1.3,116.9v8.5h9.1l250.2,1.3c83.6,0.7,166.6,0.7,250.2,0s167.2-0.7,250.2-2c83.6-1.3,167.2-3.3,250.2-4.6h3.9L1090.5,1286.9
						L1090.5,1286.9z M586.1,1276.4H335.9l-241.7,1.3l-0.7-108.4v-14.4c0-4.6,0-9.1,0.7-13.7c0.7-9.1,2.6-18.3,5.2-27.4
						c5.2-17.6,13.7-34.6,25.5-49c5.9-7.2,13.1-13.7,20.3-18.9c7.2-5.9,15.7-10.5,24.2-15c17-9.1,34.6-16.3,52.9-22.9
						c36.6-13.1,74.5-22.2,111.7-33.3c18.9-5.2,37.9-11.1,55.5-20.3c8.5-4.6,17.6-9.8,24.8-17c7.2-7.2,13.1-15.7,17-25.5
						c7.8-18.9,9.8-38.5,10.5-58.1c0-19.6-0.7-39.2-1.3-58.8l-8.5-227.3l153.5,2.6c50.3,0.7,100.6,0.7,150.9,0.7
						c-2.6,51.6-5.2,103.9-7.2,155.5c-1.3,27.4-1.3,54.9-2,82.3c0,27.4-1.3,55.5,5.2,83.6c3.3,13.7,8.5,27.4,18.3,39.2
						c9.1,11.1,22.2,18.9,34.6,24.8c25.5,12.4,52.3,18.3,79,24.8s53.6,13.1,79.7,21.6c26.1,8.5,51.6,18.3,75.1,32.7
						c20.9,12.4,37.9,30.7,49,52.3c5.9,10.5,9.8,22.2,12.4,34c1.3,5.9,2.6,11.8,2.6,17.6c0.7,3.3,0.7,5.9,0.7,9.1v9.8l-2,124.1
						c-82.3-1.3-164-3.3-246.3-4.6C752.7,1277.1,669.1,1277.1,586.1,1276.4L586.1,1276.4z"/>
				</g>
				<g id="svga-group-clothes-single_00000092443054767638251410000012826192236508964736_">
					<path id="SvgjsPath8478_00000178910953367984335330000002333961398644872881_" class="st7" d="M590.7,1056.2
						c-7.2-19.6-53.6-51-86.2-69.2c-32.7-18.3-45.7-32-65.3-57.5c-11.8-23.5-6.5-58.1-6.5-58.1c-0.7-30.7-3.9-62.1-5.9-96
						c-53.6-7.2-85.6,24.2-91.5,30.1c-42.5,41.2-20.3,55.5-37.2,75.1c-60.1,13.7-46.4,92.8-69.9,98
						c-56.8,12.4-138.5,45.7-158.1,137.2c0,0-10.5,60.1-10.5,174.4h1049.8c0-114.3-10.5-174.4-10.5-174.4
						c-20.9-99.3-115-124.1-170.5-139.8c-9.1-3.9,1.3-34-16.3-68.6c-9.1-17.6-25.5-42.5-60.8-51c0,0-7.8-43.1-35.3-64.7
						s-73.2-16.3-73.2-16.3s-2,92.1-2,105.2c0,20.9-1.3,32-10.5,43.1c-9.1,11.1-28.7,25.5-45.1,49s-66,49-76.4,58.8
						C599.8,1040.6,590.7,1056.2,590.7,1056.2L590.7,1056.2z"/>
					<path id="SvgjsPath8479_00000152229112587459313850000009547129646880416138_" class="st8" d="M622.1,1075.8
						c-3.9,3.9-11.1,22.2-11.8,37.2c-0.7,15,11.8,75.1,13.7,87.5c2,12.4-6.5,48.3-6.5,55.5s18.3,18.3,20.3,11.1
						c2-7.2,7.8-54.9,1.3-71.2s-14.4-66-14.4-75.8s7.2-36.6,10.5-42.5c0,0,1.3-5.2-3.9-5.9C626,1071.3,622.1,1075.8,622.1,1075.8
						L622.1,1075.8z"/>
					<path id="SvgjsPath8480_00000095334740428102156650000002524511764122621854_" class="st8" d="M556.7,1071.9l0.7-1.3
						c0,0,11.8-8.5,12.4,5.9c0,0-7.8,18.3-7.8,31.4s14.4,77.7,16.3,92.1s-17.6,67.9-20.3,68.6c-2.6,0.7-13.7-5.9-17-8.5
						c-2.6-2.6,16.3-45.1,18.3-64.7c2-18.9-2.6-56.8-7.8-79.7c-5.2-22.9,2.6-38.5,5.2-43.1L556.7,1071.9L556.7,1071.9z"/>
					<path id="SvgjsPath8481_00000124127303232951955450000013446168112949671565_" class="st9" d="M1117.2,1186.3
						c-1.3-17-2.6-34-4.6-51.6l-1.3-13.1l-0.7-6.5v-2c0-0.7,0-1.3-0.7-2l-0.7-3.3c-2-9.1-4.6-17.6-7.8-26.1
						c-7.2-17-17-32.7-28.7-46.4c-12.4-13.7-26.8-24.8-42.5-34c-30.1-17.6-62.7-27.4-94.7-35.9v-0.7c-0.7-2.6-0.7-5.9-0.7-9.1
						c-0.7-6.5-0.7-13.1-2-20.3c-2-13.7-7.2-27.4-13.7-39.2s-15.7-23.5-26.8-32c-9.8-7.8-20.9-13.1-32.7-17
						c-2.6-9.1-5.2-18.3-9.1-26.8c-4.6-10.5-10.5-20.3-18.9-28.7c-8.5-9.1-22.2-16.3-32.7-19.6c-33.3-7.8-56.2-2.6-56.2-2.6
						s-7.8,62.7-18.9,147c0,0-25.5,32-34.6,44.4c-2.6,2.6-4.6,6.5-7.2,9.1c-1.3,1.3-2,2.6-3.3,3.9l-3.9,3.9
						c-5.2,5.2-11.1,9.8-17,14.4c-11.8,9.1-24.8,17.6-37.2,26.1c-3.3,2-6.5,4.6-9.1,7.2c-3.3,2.6-5.2,5.9-7.8,8.5
						c-2.6,3.3-4.6,5.9-6.5,9.1l-3.3,5.2l-1.3,2.6l-0.7,0.7l-1.3-2l-2-3.9c-1.3-2.6-3.3-4.6-5.2-6.5l-11.8-11.8
						c-8.5-7.2-17-14.4-26.1-20.9c-9.1-6.5-18.3-12.4-27.4-18.3c-9.1-5.9-18.9-11.1-27.4-17.6c-17.6-13.1-29.4-30.1-43.1-46.4
						c-7.2-8.5-11.1-22.9-12.4-32c-0.7-6.5,3.9-70.6-1.3-116.9c0-2.6-4.6-5.9-36.6-7.2c-32.7,0.7-57.5,21.6-67.9,32
						c-9.8,10.5-20.3,21.6-25.5,36.6c-2.6,7.2-3.3,15.7-4.6,22.2c-0.7,5.9-2,9.1-4.6,12.4c-11.1,2.6-21.6,8.5-29.4,16.3
						c-9.1,9.1-15,19.6-18.9,30.7c-4.6,11.1-7.2,22.2-9.8,32c-1.3,5.2-3.3,9.8-5.2,13.7c-0.7,2-2,2.6-2.6,3.3c0,0-0.7,0-0.7,0.7
						l-3.9,0.7c-21.6,5.2-43.1,12.4-64,22.2c-20.3,10.5-39.2,23.5-54.9,40.5c-15.7,17-27.4,37.2-34.6,58.8c-2,5.2-3.3,11.1-4.6,16.3
						l-0.7,4.6c0,0.7,0,1.3-0.7,2.6v2l-1.3,8.5c-1.3,11.1-2,22.2-3.3,32.7c-3.3,43.8-3.9,87.5-3.3,131.3c0,2.6,0.7,8.5,3.3,8.5
						c87.5-1.3,1051.2,1.3,1051.2,1.3c5.2,0,9.8-4.6,9.8-9.8C1120.5,1255.5,1119.9,1220.9,1117.2,1186.3L1117.2,1186.3z
						 M747.5,797.5c6.5,3.9,30.7,16.3,39.2,33.3c0.7,5.2,1.3,11.8,0,17c-1.3,5.2-3.9,9.8-7.2,15c-13.7,17-39.9,41.2-42.5,44.4
						C770.3,849.8,747.5,797.5,747.5,797.5L747.5,797.5z M418.2,913.2c5.9,9.1,26.1,28.1,32.7,35.9c-2.6-2-25.5-19.6-28.1-20.9
						c-7.8-5.2-11.8-11.1-17.6-18.9c-11.8-14.4-17.6-33.3-22.2-52.3c-2-9.1-3.9-18.9,2-24.8c14.4-9.8,38.5-13.1,39.9-13.7
						c1.3,17.6-20.9,37.9-20.3,55.5c-0.7,2-0.7,2.6-0.7,4.6v5.2c0.7,3.3,1.3,6.5,2,9.1C407.8,897.5,415,907.9,418.2,913.2
						L418.2,913.2z M245.8,973.9c3.3-5.9,5.2-11.8,6.5-17c3.3-11.1,5.2-20.9,9.1-30.7c3.3-9.8,8.5-18.3,15-24.8s15-11.1,24.2-13.1
						c1.3,0,2-0.7,3.3-1.3c0.7,7.2,1.3,14.4,2.6,21.6c2,11.1,4.6,22.2,9.1,32.7c2,5.9,5.2,10.5,7.8,15.7c3.3,4.6,6.5,9.8,9.8,14.4
						c15,18.3,33.3,31.4,53.6,41.8c20.3,10.5,41.2,18.3,63.4,22.2c-20.3-9.1-39.9-19.6-58.1-31.4c-9.1-5.9-18.3-11.8-26.1-18.9
						c-8.5-7.2-16.3-14.4-22.2-22.2c-3.3-3.9-6.5-8.5-9.1-12.4c-2.6-4.6-5.2-9.1-7.2-13.7c-4.6-9.1-7.2-20.3-10.5-30.1
						c-2.6-9.1-4.6-18.9-5.9-28.1c0.7-1.3-5.2-33.3,28.7-64.7c9.1-9.8,19.6-18.3,30.1-24.8c27.4-15.7,44.4-9.1,52.9-7.8
						c0.7,13.1,1.3,20.3,2,33.3c-2,0.7-27.4,6.5-29.4,7.2c-4.6,2-9.8,3.3-14.4,7.2c-4.6,3.3-7.2,9.8-7.8,15
						c-0.7,5.9,0,11.1,0.7,16.3c2.6,20.3,8.5,41.2,21.6,58.1c6.5,8.5,15,15.7,23.5,20.9l25.5,15.7c8.5,5.2,17,9.8,25.5,14.4
						c5.2,3.9,9.8,7.8,15,11.1c9.1,6.5,18.9,11.8,28.7,17c9.1,5.2,18.9,11.1,28.1,17c9.1,5.9,18.3,12.4,26.8,18.9
						c4.6,3.3,8.5,7.2,12.4,11.1c2,2,3.9,3.9,5.2,5.9c0.7,1.3,1.3,2,2,3.3l1.3,2c0.7,0.7,1.3,2,2,2.6c0,0,0.7,0,1.3-0.7v-0.7
						l0.7-0.7l0.7-1.3l1.3-2.6l3.3-4.6c2-3.3,4.6-5.9,7.2-9.1c2.6-2.6,5.2-5.9,7.8-7.8c2.6-2,5.9-4.6,9.1-6.5
						c13.1-7.8,26.1-15.7,38.5-24.8c6.5-4.6,12.4-9.1,18.3-14.4c1.3-1.3,2.6-2.6,4.6-3.9c1.3-1.3,2.6-2.6,3.9-4.6
						c2.6-3.3,4.6-5.9,7.2-9.1c9.8-11.1,20.9-21.6,32-32l17-15.7c4.6-4.6,20.9-18.3,23.5-20.9c9.8-8.5,18.3-17.6,24.8-29.4
						s5.9-26.1,1.3-39.9c-7.2-15.7-36.6-32.7-45.1-37.9l-0.7-16.3c1.3,0.7,28.7-5.9,52.9,9.1c16.3,10.5,30.1,34.6,34.6,43.8
						c3.9,9.1,7.2,18.9,9.1,28.7c0.7,3.3,3.3,5.9,6.5,7.2c0.7,0,0.7,0,1.3,0.7c-1.3,13.1-3.9,26.1-9.1,37.9
						c-3.9,9.8-8.5,18.9-15,26.1c-6.5,7.8-14.4,15-22.2,21.6c-3.9,3.3-7.8,6.5-11.8,10.5l-12.4,9.8c-8.5,6.5-17,13.1-25.5,18.9
						c-17,12.4-34.6,24.8-51.6,37.9c20.3-8.5,39.2-18.3,57.5-29.4s36.6-23.5,52.9-37.9c3.9-3.9,8.5-7.2,11.8-11.1l5.9-5.9l5.2-6.5
						c7.2-9.1,11.8-19.6,15-30.7c3.9-13.1,5.2-26.1,4.6-39.9c9.1,3.3,17,7.2,24.2,13.7c9.1,7.2,15.7,17,21.6,27.4
						c5.9,10.5,9.8,21.6,11.1,33.3c0.7,5.9,1.3,11.8,1.3,18.3c0,3.3,0,6.5,0.7,10.5c0,2,0.7,3.9,1.3,7.2c0.7,1.3,1.3,3.3,2.6,4.6
						l0.7,0.7l-9.1,9.1c-5.9,5.2-12.4,10.5-18.3,15.7c-12.4,10.5-25.5,20.3-38.5,29.4s-26.1,18.9-39.9,26.1
						c-7.2,3.9-13.7,7.2-20.9,9.8c-7.2,2.6-15,5.2-22.9,7.2c-15.7,4.6-31.4,8.5-47,11.8c-15.7,3.9-31.4,7.2-47,9.8l-23.5,3.9
						c-3.9,0.7-7.8,0.7-11.1,0.7c-3.9,0-7.2-1.3-10.5-2.6l-1.3-0.7c2-7.2,3.9-15,6.5-21.6c0.7-1.3,0-3.3-0.7-4.6
						c-0.7-1.3-2.6-2-4.6-2c-3.3,0-5.9,2-7.8,3.9c2-2.6,5.2-3.9,7.8-3.9c1.3,0,3.3,0.7,3.9,2c0.7,1.3,1.3,2.6,0.7,4.6
						c-3.3,7.8-5.2,15.7-7.8,24.2c-2,7.8-3.9,17-2.6,25.5c1.3,17,3.9,33.3,7.2,50.3c0.7,3.9,2,8.5,2.6,12.4l2,5.9
						c0.7,2,1.3,3.9,1.3,5.9c1.3,7.8,1.3,16.3,1.3,24.8c-0.7,8.5-1.3,17-2,24.8c-0.7,3.9-1.3,8.5-2,12.4c0,0.7-0.7,2-0.7,2.6
						c-0.7,0-2.6,0-3.9-0.7c-3.3-1.3-6.5-3.9-8.5-6.5c-0.7-0.7-0.7-1.3-1.3-2v-2c0-2,0.7-3.9,0.7-5.9c1.3-8.5,2.6-16.3,3.9-24.8
						c0.7-3.9,1.3-8.5,1.3-12.4c0-3.9,0-9.1-0.7-13.1l-5.2-24.8c-3.3-16.3-7.2-33.3-9.1-49.7c-0.7-3.9-0.7-8.5-0.7-12.4
						c0-3.3,0.7-5.9,1.3-9.1c0,0,0.7-2.6,0.7-3.3c1.3-3.9,2-7.8,3.9-12.4c-1.3,3.9-2.6,7.8-3.9,12.4c0,0.7-0.7,2-0.7,2.6
						c-6.5-3.9-13.7-5.9-21.6-7.2c-8.5-1.3-16.3-2-24.8-3.3c1.3-5.2,2.6-9.8,4.6-14.4c0-1.3-0.7-3.3-1.3-4.6
						c-0.7-1.3-1.3-2.6-3.3-3.9c-3.3-1.3-6.5,0-9.1,2c2.6-1.3,5.9-2.6,8.5-1.3c2.6,1.3,3.3,5.2,3.3,7.8c-3.3,7.8-6.5,15.7-7.8,24.8
						c-0.7,3.9-1.3,9.1-0.7,13.1c0.7,4.6,1.3,8.5,2,13.1c2.6,17,5.9,34,9.1,51l2,12.4c0.7,3.9,1.3,8.5,1.3,12.4
						c-0.7,7.8-2.6,16.3-5.2,24.2c-2.6,7.8-5.2,16.3-7.8,24.2c-1.3,3.9-3.3,7.8-4.6,11.8c-0.7,0.7-0.7,1.3-1.3,2.6
						c-1.3-0.7-2.6-0.7-4.6-2c-2-0.7-3.9-2-5.2-3.3c-0.7-0.7-1.3-1.3-2.6-2l-0.7-0.7c0-1.3,0.7-3.3,1.3-5.2l2-5.9l8.5-24.2
						c2.6-8.5,5.2-16.3,6.5-25.5s0.7-17.6,0-26.1c-1.3-17-4.6-34-7.8-51c-3.9-11.8-3.9-25.5-0.7-37.2h0.7c0,0,0-0.7-0.7-0.7
						c1.3-3.9,2.6-7.8,4.6-11.8c-2,3.3-3.9,7.2-5.2,11.1c-3.3-3.9-5.2-9.1-3.9-12.4c1.3-3.9,5.2-6.5,10.5-5.9
						c4.6,0,9.1,2.6,13.1,5.9c2,2,3.3,3.9,3.9,6.5c0.7,2-0.7,4.6-3.3,6.5c1.3,0,3.3-0.7,4.6-2s2-3.3,2-4.6c0-3.3-1.3-6.5-3.3-9.1
						c-3.9-5.2-9.8-9.1-16.3-9.8c-3.3,0-7.2,0.7-10.5,2.6s-5.2,5.2-5.2,9.1c-0.7,7.2,3.9,11.8,9.1,14.4c-0.7,2.6-1.3,4.6-2,7.2
						l-35.9-4.6c-17-2.6-34-3.9-51-6.5c-17-2.6-34-5.2-50.3-8.5c-8.5-1.3-16.3-3.3-24.2-5.9c-7.8-2-15.7-5.9-23.5-9.1
						c-15.7-6.5-30.7-15-45.1-22.9c-15-8.5-29.4-17-43.8-26.1c-7.2-4.6-14.4-9.1-20.9-14.4l-9.8-7.8l-3.9-3.9
						C243.1,977.8,244.4,975.9,245.8,973.9L245.8,973.9z M585.5,1284.2l-131.3,1.3l-131.3,0.7c-86.2,0.7-171.8,0-258.1-1.3
						c0.7-41.8,2.6-84.3,7.2-126.1c1.3-10.5,2.6-21.6,3.9-32l1.3-7.8v-2c0-0.7,0-1.3,0.7-2l0.7-3.9c1.3-5.2,2.6-9.8,4.6-15
						c7.2-19.6,18.3-37.2,32.7-52.3c14.4-15,32-26.8,51-35.9c18.9-9.1,39.2-16.3,59.4-20.9l3.9-0.7c2.6-0.7,4.6-1.3,6.5-3.3
						c1.3-0.7,2-1.3,2.6-2.6c3.3,5.2,7.8,9.1,12.4,13.7c6.5,5.9,13.1,11.8,19.6,17c13.7,10.5,27.4,20.3,42.5,30.1
						c14.4,9.1,29.4,17.6,45.1,25.5c7.8,3.9,15.7,7.2,24.8,9.8c8.5,2.6,17,4.6,25.5,6.5c34,6.5,67.9,10.5,102.6,12.4
						c14.4,0.7,22.2,1.3,35.9,1.3c-0.7,7.8,0,16.3,1.3,24.2c3.3,17,5.2,34,5.9,51c0.7,8.5,0.7,17-0.7,25.5
						c-1.3,7.8-3.9,16.3-6.5,24.2l-8.5,24.2c-0.7,2-1.3,3.9-2,6.5c-0.7,2-1.3,3.9-1.3,7.2v2c0,0.7,0.7,1.3,0.7,1.3l0.7,0.7
						c0.7,0.7,1.3,0.7,1.3,1.3c0.7,0.7,2,1.3,2.6,2c2,1.3,3.9,2.6,5.9,3.3c2,1.3,3.9,2,7.2,2.6h2.6c1.3-0.7,1.3-0.7,2-1.3
						c0.7-0.7,1.3-1.3,1.3-2c0.7-1.3,1.3-2,1.3-3.3c2-3.9,3.3-7.8,4.6-12.4c2.6-7.8,5.2-16.3,7.8-24.8c2-8.5,4.6-17,5.2-26.1
						c0-5.2-1.3-9.1-2-13.1c-0.7-3.9-1.3-8.5-2.6-12.4c-3.3-17-7.2-33.3-10.5-50.3c-0.7-3.9-1.3-8.5-2-12.4c-0.7-3.9-0.7-8.5,0-12.4
						c0-1.3,0.7-2.6,0.7-3.9c15.7,0.7,32-0.7,47,4.6c-0.7,3.3-1.3,5.9-1.3,9.1c-0.7,3.9,0,8.5,0.7,12.4c2,17,4.6,33.3,7.2,50.3
						l3.9,24.8c1.3,7.8-0.7,16.3-2,24.2l-4.6,24.8c-0.7,2-0.7,3.9-0.7,6.5c0,0.7,0,3.3,0.7,4.6c0.7,1.3,1.3,2.6,2,3.3
						c3.3,3.9,7.2,6.5,11.1,8.5c2,0.7,4.6,2,8.5,1.3c2-0.7,3.9-2.6,4.6-3.9c0.7-1.3,0.7-2.6,0.7-3.3c0.7-4.6,1.3-8.5,2-13.1
						c1.3-8.5,1.3-17,2-25.5c0-8.5,0-17-2-25.5c-0.7-2-1.3-4.6-2-6.5l-2-5.9c-1.3-3.9-2.6-7.8-3.3-12.4c-3.9-16.3-7.2-32.7-9.8-49.7
						c-1.3-6.5-0.7-13.7,1.3-20.3c3.9,2,8.5,3.3,12.4,3.9c2,0.7,4.6,0.7,6.5,0.7h6.5c8.5,0,16.3-1.3,24.8-2
						c32.7-3.9,64.7-10.5,96-18.9c7.8-2.6,15.7-4.6,23.5-7.8c7.8-2.6,15.7-6.5,22.9-11.1c14.4-8.5,27.4-18.3,39.9-28.7
						c12.4-10.5,24.8-20.9,36.6-32.7c5.9-5.9,11.8-11.8,17-18.3c2.6-3.3,5.2-6.5,7.8-10.5c1.3,0.7,2.6,2,3.9,2.6
						c0.7,0,0.7,0.7,1.3,0.7c32.7,9.1,64.7,18.9,92.8,35.9c28.1,16.3,50.3,40.5,62.7,69.9c2.6,7.2,5.2,15,7.2,22.9l0.7,2.6v2.6
						l0.7,5.9l1.3,12.4c2,17,3.3,33.3,4.6,50.3c2,30.7,3.3,61.4,3.3,92.1l-252.2,1.3C760.5,1281.6,673,1282.9,585.5,1284.2
						L585.5,1284.2z M616.2,1085.6c-2-2.6-2.6-5.2-2.6-7.2c0-2.6,0.7-4.6,2-6.5c2.6-3.3,7.8-4.6,12.4-3.9c4.6,0.7,9.8,3.3,11.8,7.2
						c1.3,2,1.3,3.9,0.7,6.5c-0.7,2.6-2.6,4.6-4.6,7.2c2.6-0.7,5.2-2.6,7.2-5.9c2-2.6,2-7.2,0.7-10.5c-2.6-6.5-9.1-10.5-15.7-11.8
						c-3.3-0.7-6.5-0.7-9.8,0.7c-3.3,1.3-6.5,3.3-7.8,6.5c-1.3,2.6-2,6.5-1.3,9.8C610.9,1081.7,613.6,1084.3,616.2,1085.6
						L616.2,1085.6z M200,1218.3c-4.6-17.6-10.5-34.6-18.3-51c-7.8-16.3-17.6-32-29.4-45.7s-24.8-26.8-40.5-35.3
						c7.2,5.2,13.7,11.8,19.6,18.3c6.5,6.5,11.8,13.1,17,20.3c10.5,14.4,19.6,29.4,27.4,45.7c3.9,7.8,7.8,15.7,10.5,24.2
						c3.3,7.8,5.9,17,9.1,24.8c2.6,8.5,4.6,17,7.2,25.5c2,8.5,3.9,17.6,5.9,26.1c-0.7-9.1-2-17.6-3.3-26.8
						C203.9,1235.9,202.6,1227.4,200,1218.3z M1020.6,1127.5c-11.8,12.4-21.6,26.8-29.4,41.8s-14.4,31.4-19.6,47.7
						c-2.6,7.8-3.9,16.3-6.5,24.8l-3.9,25.5c2.6-7.8,4.6-16.3,7.2-24.2c2.6-7.8,5.2-16.3,7.8-24.2c1.3-3.9,3.3-7.8,4.6-11.8
						s3.3-7.8,5.2-11.8c3.3-7.8,7.2-15,11.1-22.9c7.8-14.4,17-28.7,27.4-41.8c5.2-6.5,11.1-12.4,17-18.9
						c5.9-5.9,12.4-11.8,19.6-15.7C1045.4,1103.3,1032.3,1115,1020.6,1127.5L1020.6,1127.5z"/>
				</g>
				<g id="svga-group-head_00000038406687648788892380000006869694862039125920_" transform="matrix(1,0,0,1,0,0)">
					<g id="svga-group-ears-left-move_00000133505362821361774860000010884153350309997217_" transform="matrix(1,0,0,1,0,0)">
						<g id="svga-group-ears-left_00000071553099723408962300000000716387773013649587_" transform="matrix(1,0,0,1,0,0)">
							<path id="SvgjsPath4769_00000129892892741377268200000017974264537021272498_" class="st3" d="M337.2,458.5
								c-1.3-2-21.6-28.1-38.5-43.8c-17-15.7-22.2-15.7-30.1-5.9c-8.5,9.8-18.9,59.4-16.3,81c2.6,22.2,23.5,56.8,34,76.4
								c11.1,19.6,21.6,43.8,33.3,41.2c12.4-2.6,28.7-30.1,37.2-50.3C365.3,536.9,360.1,486.6,337.2,458.5L337.2,458.5z"/>
							<path id="SvgjsPath4770_00000007392631129354401960000007446755108262880651_" class="st10" d="M362,517.9
								c0.7,5.9,1.3,11.1,1.3,17c0,5.9,0,11.1-1.3,17c-0.7,2.6-1.3,5.9-2,8.5c-0.7,2.6-2,4.6-2.6,7.2c-2,4.6-3.9,9.1-6.5,13.7
								c-4.6,8.5-9.8,17-17,23.5c-3.3,3.3-7.2,6.5-11.8,8.5c-2.6,0.7-5.9,0.7-8.5,0c-2.6-1.3-5.2-3.3-7.2-5.2
								c-7.8-8.5-12.4-18.3-17.6-28.1c-4.6-9.8-9.8-18.9-14.4-28.1c-4.6-9.8-9.8-18.9-13.7-28.7c-2-5.2-4.6-9.8-5.9-15
								c-2-5.2-3.3-10.5-3.9-16.3c-1.3-11.1,0-22.2,0.7-32.7c1.3-10.5,3.3-20.9,5.2-31.4c1.3-5.2,2.6-10.5,5.2-15l2-3.9
								c0.7-1.3,2-2.6,2.6-3.3c1.3-2,3.3-3.9,5.9-5.2c2-1.3,5.2-2,7.8-2c2.6,0.7,5.2,2,7.2,3.3c4.6,2.6,7.8,6.5,11.8,9.8
								c14.4,14.4,26.1,31.4,38.5,47C350.3,474.2,358.8,495.7,362,517.9L362,517.9z M296.1,416c-7.2-5.9-15.7-12.4-20.3-7.8
								c-1.3,0.7-2.6,2.6-3.9,3.9l-2,2c-0.7,0.7-0.7,2-1.3,2.6c-2,3.9-3.3,8.5-5.2,13.1c-3.3,9.1-5.9,18.9-7.2,29.4
								c-2,9.8-3.3,20.3-2.6,30.7c0.7,5.2,2,10.5,3.9,15c2,5.2,3.9,9.8,5.9,14.4c4.6,9.8,9.8,18.3,15,27.4
								c5.2,9.1,11.1,17.6,16.3,26.8c2.6,4.6,5.2,9.1,7.8,13.1c2.6,3.9,5.2,8.5,8.5,11.1c3.3,2.6,5.9,3.9,8.5,2.6
								c3.3-1.3,5.9-3.9,9.1-7.2c5.9-6.5,10.5-13.7,15-22.2c2.6-3.9,4.6-8.5,6.5-12.4c1.3-2,2-4.6,2.6-6.5l1.3-3.3
								c0-1.3,0.7-2,0.7-3.3c2-9.1,2.6-19.6,2-30.1c-0.7-10.5-2.6-20.9-5.9-31.4c-3.3-10.5-7.8-19.6-14.4-27.4
								C324.1,442.8,310.4,428.4,296.1,416L296.1,416z"/>
							<path id="SvgjsPath4771_00000024712464145685294870000000870013819803304580_" class="st5" d="M266.7,500.9
								c-2-15-3.3-51,5.2-62.7c14.4-18.9,39.2,41.8,45.1,60.8c0,0.7,0.7,1.3,0.7,2c1.3,2-0.7,4.6-2.6,3.9c-2.6-1.3-5.9-3.9-8.5-5.2
								c-7.2-3.3-10.5,3.3-8.5,11.8c2.6,11.8,9.1,18.9,14.4,28.1c0.7,1.3,0,2.6-1.3,2c-10.5-5.9-22.9-29.4-20.3-43.1
								c2-13.1,12.4-11.8,20.3-5.2c-4.6-11.1-9.8-21.6-16.3-31.4c-3.9-5.9-7.8-13.1-14.4-14.4c-7.8-1.3-6.5,2-7.8,11.8
								c-5.2,31.4-2,67.9,16.3,94.7c0.7,0.7,0,1.3-0.7,0.7C276.5,539.5,268.6,522.5,266.7,500.9L266.7,500.9z"/>
						</g>
					</g>
					<g id="svga-group-ears-right-move_00000023990368579819437590000017260213260391083962_" transform="matrix(1,0,0,1,0,0)">
						<g id="svga-group-ears-right_00000183216198940878495520000001078366530221092522_" transform="matrix(1,0,0,1,0,0)">
							<path id="SvgjsPath4772_00000028296156769371209750000003373236230384370846_" class="st3" d="M833.7,458.5
								c1.3-2,21.6-28.1,38.5-43.8c17-15.7,22.2-15.7,30.1-5.9c8.5,9.8,18.9,59.4,16.3,81c-2.6,21.6-23.5,56.8-34,76.4
								c-11.1,19.6-21.6,43.8-33.3,41.2c-12.4-2.6-28.7-30.1-37.2-50.3C805.6,536.9,810.9,486.6,833.7,458.5L833.7,458.5z"/>
							<path id="SvgjsPath4773_00000119810840928815985980000008301420733974478467_" class="st10" d="M833.7,458.5
								c12.4-15.7,24.8-32.7,38.5-47c3.3-3.3,7.2-7.2,11.8-9.8c2-1.3,4.6-2.6,7.2-3.3c2.6-0.7,5.9,0.7,7.8,2c2,1.3,3.9,3.3,5.9,5.2
								c0.7,0.7,1.3,2,2.6,3.3l2,3.9c2,4.6,3.9,9.8,5.2,15c2.6,10.5,4.6,20.9,5.2,31.4c1.3,10.5,2,21.6,0.7,32.7
								c-0.7,5.9-2.6,11.1-3.9,16.3c-2,5.2-3.9,10.5-5.9,15c-4.6,9.8-9.1,19.6-13.7,28.7c-5.2,9.8-9.8,18.9-14.4,28.1
								c-5.2,9.1-9.1,19.6-17.6,28.1c-2,2-4.6,3.9-7.2,5.2c-2.6,1.3-5.9,1.3-8.5,0c-5.2-2-8.5-5.2-11.8-8.5
								c-6.5-7.2-11.8-15-17-23.5c-2.6-4.6-4.6-9.1-6.5-13.7c-1.3-2.6-2-4.6-2.6-7.2c-0.7-2.6-2-5.2-2-8.5c-0.7-5.9-1.3-11.1-1.3-17
								c0-5.9,0.7-11.1,1.3-17C812.2,495.7,820.7,474.2,833.7,458.5L833.7,458.5z M834.4,459.1c-6.5,7.8-11.1,17.6-14.4,27.4
								c-3.3,10.5-5.2,20.9-5.9,31.4c-0.7,10.5,0,20.9,2,30.1c0,1.3,0.7,2,0.7,3.3l1.3,3.3c0.7,2,2,4.6,2.6,6.5
								c2,4.6,3.9,8.5,6.5,12.4c4.6,7.8,9.8,15.7,15,22.2c2.6,3.3,5.9,5.9,9.1,7.2c2.6,1.3,5.2,0,8.5-2.6c3.3-2.6,5.9-6.5,8.5-11.1
								c2.6-3.9,5.2-8.5,7.8-13.1c5.2-9.1,11.1-18.3,16.3-26.8c5.2-9.1,10.5-18.3,15-27.4c2.6-4.6,4.6-9.8,5.9-14.4
								c2-5.2,3.3-10.5,3.9-15c0.7-10.5-0.7-20.9-2.6-30.7c-2-9.8-4.6-19.6-7.2-29.4c-1.3-4.6-3.3-9.1-5.2-13.1
								c-0.7-0.7-0.7-2-1.3-2.6c-0.7-0.7-0.7-1.3-2-2c-1.3-1.3-2.6-3.3-3.9-3.9c-4.6-3.9-13.1,2.6-20.3,7.8
								C860.5,428.4,846.8,442.8,834.4,459.1z"/>
							<path id="SvgjsPath4774_00000123418745950250026900000005242638642705861523_" class="st5" d="M904.3,500.9
								c2-15,3.3-51-5.2-62.7C884.7,419.3,859.8,480,854,499c0,0.7-0.7,1.3-0.7,2c-1.3,2,0.7,4.6,2.6,3.9c2.6-1.3,5.9-3.9,8.5-5.2
								c7.2-3.3,10.5,3.3,8.5,11.8c-2.6,11.8-9.1,18.9-14.4,28.1c-0.7,1.3,0,2.6,1.3,2c10.5-5.9,22.9-29.4,20.3-43.1
								c-2-13.1-12.4-11.8-20.3-5.2c4.6-11.1,9.8-21.6,16.3-31.4c3.9-5.9,7.8-13.1,14.4-14.4c7.8-1.3,6.5,2,7.8,11.8
								c5.2,31.4,2,67.9-16.3,94.7c-0.7,0.7,0,1.3,0.7,0.7C894.5,539.5,902.3,522.5,904.3,500.9L904.3,500.9z"/>
						</g>
					</g>
					<g id="svga-group-faceshape-wrap_00000004524163191241227030000014037887638630801829_" transform="matrix(1,0,0,1,0,0)">
						<g id="svga-group-faceshape-single_00000176038536051351247580000014608898274997002114_">
							<path id="SvgjsPath3921_00000042731732103047450370000008321497139949924006_" class="st3" d="M585.5,82.2
								c-147,0-273.7,107.1-282.2,303.1v2c0,17-0.7,161.4,15.7,251.5c10.5,54.9,27.4,72.5,72.5,109.8
								c44.4,36.6,132.6,108.4,194,108.4s149-71.9,194-108.4c44.4-36.6,62.1-54.9,72.5-109.8c17-90.2,15.7-234.5,15.7-251.5v-2
								C859.2,190,732.5,82.2,585.5,82.2L585.5,82.2z"/>
							<path id="SvgjsPath3922_00000069374409099701678000000001737544053006174373_" class="st6" d="M867.7,387.3v-2
								C859.2,190,732.5,82.2,585.5,82.2S311.7,189.3,303.2,385.3v2c0,17-0.7,161.4,15.7,251.5c10.5,54.9,27.4,72.5,72.5,109.8
								c44.4,36.6,132.6,108.4,194,108.4s149-71.9,194-108.4c44.4-36.6,62.1-54.9,72.5-109.8C869,548.6,867.7,404.3,867.7,387.3z
								 M846.1,458.5c-1.3,43.8-3.9,94.7-8.5,137.8c-1.3,11.1-2.6,21.6-4.6,32c-1.3,10.5-3.9,20.9-6.5,30.1
								c-2.6,9.8-6.5,18.3-11.1,26.1c-4.6,7.8-11.1,15.7-18.3,22.9c-14.4,14.4-32,28.7-49,43.1c-17,14.4-34,27.4-51.6,40.5
								c-17.6,13.1-35.3,24.8-54.2,35.3c-18.9,9.8-38.5,18.3-58.1,19.6c-19.6,0-40.5-5.9-60.1-15c-19.6-9.1-38.5-20.3-57.5-32
								c-18.3-12.4-35.9-25.5-53.6-39.2c-17-13.7-34.6-28.1-50.3-43.1c-7.8-7.8-14.4-16.3-19.6-24.8c-5.2-9.1-9.1-18.9-11.8-28.7
								c-2.6-10.5-4.6-20.9-5.9-32c-1.3-11.1-2.6-21.6-3.3-32.7c-3.3-43.8-3.3-94.7-3.3-139.2v-66.6c0.7-20.9,2.6-42.5,6.5-63.4
								c7.2-41.8,20.3-83,41.8-120.2c21.6-36.6,52.3-69.2,90.2-91.5c37.9-21.6,82.3-33.3,126.7-33.3c44.4,0.7,88.2,11.8,126.1,34
								s67.9,54.9,89.5,91.5c21.6,37.2,34,78.4,40.5,120.2c3.3,20.9,5.2,41.8,5.2,62.7C847.4,414.7,846.8,436.3,846.1,458.5z"/>
						</g>
					</g>
					<g id="svga-group-mouth-single-move_00000104678477563556083340000012748718505611309717_" transform="matrix(1,0,0,1,0,0)">
						<g id="svga-group-mouth-single_00000101099513116876769200000005936060192910302130_" transform="matrix(1,0,0,1,0,0)">
							<path id="SvgjsPath8082_00000141422171933166685470000016588501050236750750_" d="M481.8,657.6c0,0,0.1,16.3,7.3,28.5
								c0,0,28.2,29.6,64.7,54.9c1.2,0.9,53.8,7.6,67.7,2.7c0,0,54.6-33.9,66.6-59.6c0,0,4.3-12.7,2.7-21.4c0,0-41.4,11.5-61,14.4
								c-19.5,2.9-69.4,0-94.1-3.7C510.7,669.6,488.1,660.8,481.8,657.6L481.8,657.6z"/>
							<path id="SvgjsPath8083_00000103228007914073332400000015963566928416100999_" class="st11" d="M629.6,677
								c-19.5,2.9-69.4,0-94.1-3.7c-24.8-3.7-47.4-12.5-53.7-15.7c0,0,0.1,16.3,7.3,28.5l1.2,1.2c9.9,7,23.9,15.1,40.5,19.5
								c33,8.9,99.1,12.4,144.6-12.5c3.8-2.1,7.1-4.1,10.3-6.2c0.9-1.4,1.6-2.8,2.2-4.2c0,0,4.3-12.7,2.7-21.4
								C690.6,662.6,649.1,674.2,629.6,677L629.6,677z"/>
							<path id="SvgjsPath8084_00000008845433619439020640000017923198004561894841_" class="st12" d="M693.8,660.9
								c1-1.3,0-3.2-1.8-3.1c-11.2,3.4-18,4.8-26.7,7.1c-7.7,2.1-59.5,6.6-77.7,6.5c-59.9-1.3-87.5-10.9-105.2-15.7
								c-1.4-0.4-2.9,1.2-2.2,2.2c-1.4,8.2,6.9,28.9,6.9,29.1c15.7,21.7,40.2,40.5,62.7,55.2c16,10.4,60.3,8.7,71.1,5
								c15.4-5.8,31.2-20.7,41.5-30.6c9.5-9.1,23.1-26.1,27.6-33.3c1.9-2.9,3-6.3,3.7-9.7C694.8,670.1,695.9,664.5,693.8,660.9
								L693.8,660.9z M657.7,715c-15.8,14.6-37,23.6-38,23.6c-12.4,1.1-24.8,1.7-37.4,1.2c-8.9-0.3-27.4-2.6-28.2-3.1
								c-12-6.1-23.7-14-34.4-23.1c-10.4-8.8-23-19.1-29.8-28.9c-4.2-7.3-6.7-14.7-5.6-24.3c30.7,16.1,69.8,23.1,104,23.4
								c18.6,0.1,36.8-2.4,54.9-6c13.9-2.8,32.9-5.8,45.7-13.6c-0.2,2.1-0.1,4.3-0.5,6.3C687.9,674.3,690,685.4,657.7,715z"/>
						</g>
					</g>
					<g id="svga-group-eyes-left-move_00000164511861039829116130000010342439007147924634_" transform="matrix(1,0,0,1,0,0)">
						<g id="svga-group-eyes-left_00000040556395601536443040000003743300937158694295_" transform="matrix(1,0,0,1,0,0)">
							<g id="svga-group-eyesback-left_00000036215042128698363380000009921755445035515055_">
								<path id="SvgjsPath5385_00000026159530107209169700000008886307790454616963_" class="st11" d="M522.7,482
									c0,0-9.1-16.3-22.9-27.4c-13.7-11.1-36.6-16.3-52.9-15c-16.3,1.3-46.4,11.8-62.7,35.9c0,0,15,7.8,36.6,11.8
									c21.6,3.9,58.1,7.2,78.4,2.6C518.8,485.9,522.7,482,522.7,482L522.7,482z"/>
							</g>
							
								<g id="svga-group-eyesiriswrapper-left_00000036960686044972074070000003793539732157662603_" transform="matrix(1,0,0,1,0,0)">
								
									<g id="svga-group-eyesiriscontrol-left_00000148658172879136105380000011098036956546608515_" transform="matrix(1,0,0,1,0,0)">
									<g id="svga-group-eyesiris-left_00000052093280053153625790000009787227892336143799_" transform="matrix(1,0,0,1,0,0)">
										<path id="SvgjsPath3490_00000180340346654239542820000003075787926101810061_" class="st13" d="M455.5,429.1
											c18.3,0,34,15,34,34s-15,34-34,34s-34-15-34-34S436.5,429.1,455.5,429.1z"/>
										<path id="SvgjsPath3491_00000013896750275757836490000010611142420192405126_" d="M455.5,444.8c9.8,0,18.3,7.8,18.3,18.3
											s-7.8,18.3-18.3,18.3s-18.3-7.8-18.3-18.3S445,444.8,455.5,444.8z"/>
										<path id="SvgjsPath3492_00000113335100532478009040000010503445651714647472_" class="st11" d="M450.9,448l-3.9-3.9
											c-1.3-1.3-2.6-2-4.6-2c-1.3,0-3.3,0.7-4.6,2c-1.3,1.3-2,2.6-2,4.6c0,2,0.7,3.3,2,4.6l3.9,3.9c1.3,1.3,2.6,2,4.6,2
											c1.3,0,3.3-0.7,4.6-2C452.8,453.9,453.5,450,450.9,448L450.9,448z M467.2,478.7c5.9,0,5.9-9.1,0-9.1
											S462,478.7,467.2,478.7z"/>
									</g>
								</g>
							</g>
							<g id="svga-group-eyesfront-left_00000057127647334805594520000015324669663380086147_">
								<path id="SvgjsPath5393_00000134948236094493785850000001941853252026793389_" class="st3" d="M420.8,487.9
									c21.6,3.9,58.1,7.2,78.4,2.6c20.3-4.6,23.5-8.5,23.5-8.5s-9.1-16.3-22.9-27.4c-13.7-11.1-36.6-16.3-52.9-15
									c-16.3,1.3-44.4,11.1-60.8,34v-4.6c0-41.8,30.7-75.1,69.2-75.1s69.2,34,69.2,75.1s-30.7,75.1-69.2,75.1
									c-35.9,0-66-30.1-69.2-68.6C390.1,478.7,403.2,484.6,420.8,487.9z"/>
								<path id="SvgjsPath5394_00000110437190353774228060000012967176276112497572_" class="st10" d="M526,491.8
									c-23.5,17-54.9,26.8-84.3,24.2c-1.3,0-1.3-1.3,0-1.3c30.7-3.3,55.5-9.1,83-24.2C526.7,489.2,527.3,491.1,526,491.8
									L526,491.8z"/>
								<path id="SvgjsPath5395_00000107586304704136127620000016067061967852967080_" d="M384.3,476.8
									c35.9,26.8,100.6,24.2,140.5,9.8c2-0.7,3.3-3.3,2-5.2c-31.4-60.1-105.8-60.8-143.7-6.5C382.3,475.5,383.6,476.8,384.3,476.8
									z M455.5,489.2c-24.2-1.3-45.7-8.5-68.6-14.4c37.2-44.4,101.9-44.4,132,5.9C497.9,487.9,477,490.5,455.5,489.2L455.5,489.2z
									"/>
							</g>
						</g>
					</g>
					<g id="svga-group-eyes-right-move_00000002346664567408997310000010576468557113545638_" transform="matrix(1,0,0,1,0,0)">
						<g id="svga-group-eyes-right_00000178171318105114397840000013767268013784993435_" transform="matrix(1,0,0,1,0,0)">
							<g id="svga-group-eyesback-right_00000097463430736407405220000013835232379749611957_">
								<path id="SvgjsPath5386_00000164514116226896697420000003083900868734360195_" class="st11" d="M648.2,482
									c0,0,9.1-16.3,22.9-27.4c13.7-11.1,36.6-16.3,52.9-15s46.4,11.8,62.7,35.9c0,0-15,7.8-36.6,11.8
									c-21.6,3.9-58.1,7.2-78.4,2.6C652.1,485.9,648.2,482,648.2,482L648.2,482z"/>
							</g>
							
								<g id="svga-group-eyesiriswrapper-right_00000147902366266322014860000004101253219321438600_" transform="matrix(1,0,0,1,0,0)">
								
									<g id="svga-group-eyesiriscontrol-right_00000013181169944342986830000004579280472648075923_" transform="matrix(1,0,0,1,0,0)">
									<g id="svga-group-eyesiris-right_00000183963262661197284550000015618000074188050871_" transform="matrix(1,0,0,1,0,0)">
										<path id="SvgjsPath3493_00000038378120581954198670000002531083412650859928_" class="st13" d="M715.5,429.1
											c18.3,0,34,15,34,34s-15,34-34,34c-18.9,0-34-15-34-34S697.2,429.1,715.5,429.1z"/>
										<path id="SvgjsPath3494_00000057833568005010907480000009511908950113038013_" d="M715.5,444.8c9.8,0,18.3,7.8,18.3,18.3
											s-7.8,18.3-18.3,18.3s-18.3-7.8-18.3-18.3S705.7,444.8,715.5,444.8z"/>
										<path id="SvgjsPath3495_00000116931166680068605400000012332104485041513624_" class="st11" d="M711.6,448l-3.9-3.9
											c-1.3-1.3-2.6-2-4.6-2c-1.3,0-3.3,0.7-4.6,2c-1.3,1.3-2,2.6-2,4.6c0,2,0.7,3.3,2,4.6l3.9,3.9c1.3,1.3,2.6,2,4.6,2
											c1.3,0,3.3-0.7,4.6-2C713.5,453.9,714.2,450,711.6,448L711.6,448z M727.9,478.7c5.9,0,5.9-9.1,0-9.1
											S722,478.7,727.9,478.7z"/>
									</g>
								</g>
							</g>
							<g id="svga-group-eyesfront-right_00000149350111641257649140000012522478313718500287_">
								<path id="SvgjsPath5396_00000067229756650457608440000017217299002570701976_" class="st3" d="M750.1,487.9
									c-21.6,3.9-58.1,7.2-78.4,2.6c-20.3-4.6-23.5-8.5-23.5-8.5s9.1-16.3,22.9-27.4c13.7-11.1,36.6-16.3,52.9-15
									s44.4,11.1,60.8,34v-4.6c0-41.8-30.7-75.1-69.2-75.1s-69.2,34-69.2,75.1s30.7,75.1,69.2,75.1c35.9,0,66-30.1,69.2-68.6
									C780.8,478.7,767.7,484.6,750.1,487.9z"/>
								<path id="SvgjsPath5399_00000008108597961176142790000016371193178666846616_" class="st10" d="M644.9,491.8
									c23.5,17,54.9,26.8,84.3,24.2c1.3,0,1.3-1.3,0-1.3c-30.7-3.3-55.5-9.1-83-24.2C644.3,489.2,643.6,491.1,644.9,491.8
									L644.9,491.8z"/>
								<path id="SvgjsPath5400_00000055676932587813434450000010094390849775969676_" d="M788,474.8c-37.9-54.2-113-53.6-143.7,6.5
									c-1.3,2,0,4.6,2,5.2c39.9,14.4,104.5,17,140.5-9.8C787.3,476.8,788.6,475.5,788,474.8z M652.1,480.7
									c30.1-50.3,94.7-50.3,132-5.9c-22.9,5.9-44.4,13.1-68.6,14.4C693.9,490.5,673,487.9,652.1,480.7L652.1,480.7z"/>
							</g>
						</g>
					</g>
					<g id="svga-group-facehighlight-single_00000063625064949429717040000005066517776795431084_">
					</g>
					<g id="svga-group-eyebrows-left-move_00000147183000912815598980000014964964960349525665_" transform="matrix(1,0,0,1,2,0)">
						
							<g id="svga-group-eyebrows-left-rotate_00000124127031625128828600000000599381017382883459_" transform="matrix(0.9825664732332883,-0.1859116071629146,0.1859116071629146,0.9825664732332883,-13.729953156705733,15.952521038284587)">
							
								<g id="svga-group-eyebrows-left_00000090994595615630038370000015968216615246052244_" transform="matrix(0.9999999,0,0,0.9999999,0.000007795864860327129,0.000008122365187546166)">
								<path id="SvgjsPath8560_00000026143200454455199880000009696181458291169947_" class="st14" d="M318.5,455.2
									c0.7-2,2-3.9,3.3-5.2c0.7-1.3,2-3.3,3.3-4.6c1.3-1.3,2.6-2.6,4.6-3.9c3.3-5.9,11.1-10.5,16.3-13.7
									c5.9-3.3,11.8-5.9,18.9-5.9c6.5-1.3,13.7-1.3,18.9,1.3c2.6,0,4.6,0.7,6.5,2c7.2-0.7,15,1.3,21.6,2.6
									c9.1,2,18.3,3.9,26.8,7.8c9.1,0,18.3,0.7,26.8,3.3h1.3c0.7,0,1.3,0.7,1.3,0.7h0.7c0.7,0,1.3,0.7,2,1.3c0.7,0.7,0,2,0,2.6
									v0.7c0,1.3,0,2.6-0.7,3.9c0,3.9-0.7,7.2-3.3,10.5c0,0.7,0,1.3-0.7,2c-0.7,3.3-1.3,7.2-4.6,9.1c-1.3,1.3-3.3,2-5.2,2
									c-0.7,0-1.3,0-2-0.7h-3.9c-3.9,1.3-9.1,0-12.4-0.7c-3.9-0.7-7.8-2-11.1-3.9c-11.8-2-22.9-5.2-34.6-7.8
									c-10.5-2.6-26.1-2.6-35.3-8.5c-4.6,0.7-8.5,1.3-13.1,1.3c-2,0-4.6,0.7-7.2,0c-1.3,0-3.3,0-4.6-1.3c0,0-0.7,0-0.7-0.7h-0.7
									l-2.6,2.6c-2,2-4.6,4.6-7.8,5.2C319.8,458.4,318.5,457.1,318.5,455.2L318.5,455.2z"/>
								<path id="SvgjsPath8561_00000075850842502241773780000006487962323227165609_" class="st15" d="M453.7,458.4
									c-0.7-3.9-1.3-7.8-2.6-11.1c0-1.3,1.3-2,2-0.7c4.6,6.5,5.9,18.3,1.3,25.5c-0.7,1.3-2,0.7-2-0.7
									C453.1,466.3,453.7,462.4,453.7,458.4L453.7,458.4z M431.5,437.5c8.5,5.2,13.7,17,13.7,26.1c0,1.3-2,2-2,0.7
									c-1.3-4.6-2.6-8.5-4.6-12.4c-2-4.6-5.9-7.8-8.5-12.4C428.2,438.2,430.2,436.9,431.5,437.5L431.5,437.5z M409.9,433
									c14.4,5.2,24.8,20.9,27.4,34.6c0,1.3-1.3,1.3-2,0.7c-2.6-6.5-5.9-13.1-11.1-18.3c-4.6-5.9-10.5-9.1-16.3-14.4
									C406.7,434.9,408.6,432.3,409.9,433z M377.9,427.7c15.7,3.9,31.4,17,37.9,30.7c0.7,1.3-2,2.6-2.6,1.3
									c-5.2-6.5-10.5-12.4-17-17.6c-5.9-4.6-13.1-7.8-19.6-11.8C375.3,429.7,376,427.7,377.9,427.7L377.9,427.7z M321.1,451.9
									c10.5-11.8,24.8-28.1,42.5-26.1c1.3,0,1.3,2,0,2c-17,1.3-28.1,16.3-41.2,25.5C321.1,453.9,319.8,452.6,321.1,451.9
									L321.1,451.9z"/>
								<path id="SvgjsPath8562_00000068647043146618015650000002928163953700888966_" class="st16" d="M474.6,442.8
									c-0.7-2-3.3-2-3.9,0c-2,7.2-2,15.7-7.8,21.6c-3.9,4.6-9.8,5.2-15.7,4.6c2-9.8,1.3-24.2-5.2-32c-1.3-1.3-3.3-0.7-2.6,1.3
									c0,5.2,2.6,10.5,3.3,15.7c0.7,5.2,1.3,9.8,1.3,15c-0.7,0-1.3,0-2-0.7c-2-13.1-8.5-26.8-18.3-35.9c15,3.3,30.1,5.9,45.1,7.2
									c0.7,0,1.3-1.3,0.7-1.3c-17-5.9-34.6-9.1-52.3-13.1c-15.7-3.3-33.3-9.1-49.7-9.8c-13.7-0.7-23.5,5.9-32.7,14.4
									c-9.8,9.1-20.3,20.3-26.8,32l-1.3,1.3c-0.7,0.7-1.3,2-0.7,2.6c0,0,0,0.7-0.7,0.7c-1.3,2.6,2,4.6,3.9,2.6c0.7,0,1.3,0,2-0.7
									c9.1-4.6,16.3-9.1,26.8-10.5c8.5-1.3,17.6-0.7,26.1,0.7c18.9,2.6,36.6,8.5,54.2,13.7c13.7,3.9,32,11.1,45.1,1.3
									C474.6,466.9,475.9,453.2,474.6,442.8z M387.1,451.3c-3.3-0.7-7.2-1.3-11.1-2c0.7-7.2-2-15-5.2-21.6
									c4.6,3.9,9.1,7.8,13.1,12.4c3.9,3.9,5.9,9.1,9.8,13.1C391,452.6,389,451.9,387.1,451.3L387.1,451.3z M338.1,435.6
									c7.8-7.2,16.3-11.1,26.1-12.4c1.3,5.2,3.9,10.5,4.6,15.7l2,9.8c-2,0-4.6-0.7-6.5-0.7c-3.3-5.9-8.5-11.8-15-13.7
									c-1.3-0.7-2,1.3-1.3,2.6c2.6,2.6,5.9,5.2,8.5,7.8c0.7,1.3,1.3,2,2.6,3.3c-12.4-0.7-24.8,0.7-35.3,5.2
									C327.6,446.7,332.2,440.8,338.1,435.6L338.1,435.6z M437.4,466.9c-1.3-0.7-2.6-0.7-3.9-1.3c-2.6-0.7-5.9-2-8.5-2.6
									c-5.2-11.8-13.7-23.5-24.2-31.4c-1.3-0.7-2.6,0.7-2,1.3c7.8,9.1,14.4,18.9,21.6,28.7c-7.2-2.6-14.4-4.6-20.9-7.2
									c-1.3-7.2-7.8-14.4-12.4-19.6c-4.6-4.6-9.8-9.1-15.7-12.4c2.6,0,5.2,0.7,8.5,0.7c13.1,2,26.1,5.2,39.2,7.8v0.7
									c4.6,7.2,9.8,14.4,13.7,21.6C434.1,457.8,435.4,462.4,437.4,466.9L437.4,466.9z"/>
							</g>
						</g>
					</g>
					
						<g id="svga-group-eyebrows-right-move_00000029757111130784313600000007058751775704917665_" transform="matrix(1,0,0,1,-2,0)">
						
							<g id="svga-group-eyebrows-right-rotate_00000031164978907179529200000016886197808317584518_" transform="matrix(0.9825664725843344,0.1859116105927184,-0.1859116105927184,0.9825664725843344,17.214035069008986,-21.19951642330996)">
							
								<g id="svga-group-eyebrows-right_00000057119638912188872620000008120651276868446650_" transform="matrix(0.9999999,0,0,0.9999999,0.000012187297045329615,0.000008122365940721465)">
								<path id="SvgjsPath8563_00000107561918762475595630000012485467710832447880_" class="st14" d="M835.5,274.8
									c-0.7-2-2-3.9-3.3-5.2c-0.7-1.3-2-3.3-3.3-4.6c-1.3-1.3-2.6-2.6-4.6-3.9c-3.3-5.9-11.1-10.5-16.3-13.7
									c-5.9-3.3-11.8-5.9-18.9-5.9c-6.5-1.3-13.7-1.3-18.9,1.3c-2.6,0-4.6,0.7-6.5,2c-7.2-0.7-15,1.3-21.6,2.6
									c-9.1,2-18.3,3.9-26.8,7.8c-9.1,0-18.3,0.7-26.8,3.3h-1.3c-0.7,0-1.3,0.7-1.3,0.7h-0.7c-0.7,0-1.3,0.7-2,1.3s0,2,0,2.6v0.7
									c0,1.3,0,2.6,0.7,3.9c0,3.9,0.7,7.2,3.3,10.5c0,0.7,0,1.3,0.7,2c0.7,3.3,1.3,7.2,4.6,9.1c1.3,1.3,3.3,2,5.2,2
									c0.7,0,1.3,0,2-0.7h3.9c3.9,1.3,9.1,0,12.4-0.7c3.9-0.7,7.8-2,11.1-3.9c11.8-2,22.9-5.2,34.6-7.8
									c10.5-2.6,26.1-2.6,35.3-8.5c4.6,0.7,9.1,1.3,13.1,1.3c2,0,4.6,0.7,7.2,0c1.3,0,3.3,0,4.6-1.3c0,0,0.7,0,0.7-0.7h0.7
									l2.6,2.6c2,2,4.6,4.6,7.8,5.2C834.2,278.1,835.5,276.8,835.5,274.8L835.5,274.8z"/>
								<path id="SvgjsPath8564_00000157277212361696461140000017037536739483242384_" class="st15" d="M700.3,278.1
									c0.7-3.9,1.3-7.8,2.6-11.1c0-1.3-1.3-2-2-0.7c-4.6,6.5-5.9,18.3-1.3,25.5c0.7,1.3,2,0.7,2-0.7
									C701,285.9,700.3,282,700.3,278.1L700.3,278.1z M722.5,257.2c-8.5,5.2-13.7,17-13.7,26.1c0,1.3,2,2,2,0.7
									c1.3-4.6,2.6-8.5,4.6-12.4c2-4.6,5.9-7.8,8.5-12.4C725.8,257.8,723.8,256.5,722.5,257.2L722.5,257.2z M744.1,252.6
									c-14.4,5.2-24.8,20.9-27.4,34.6c0,1.3,1.3,1.3,2,0.7c2.6-6.5,5.9-13.1,11.1-18.3c4.6-5.9,10.5-9.1,16.3-14.4
									C747.4,254.6,745.4,252,744.1,252.6z M776.1,247.4c-15.7,3.9-31.4,17-37.9,30.7c-0.7,1.3,2,2.6,2.6,1.3
									c5.2-6.5,10.5-12.4,17-17.6c5.9-4.6,13.1-7.8,19.6-11.8C778.7,249.4,778.1,247.4,776.1,247.4L776.1,247.4z M832.9,271.6
									c-10.5-11.8-24.8-28.1-42.5-26.1c-1.3,0-1.3,2,0,2c17,1.3,28.1,16.3,41.2,25.5C832.9,273.5,834.2,272.2,832.9,271.6
									L832.9,271.6z"/>
								<path id="SvgjsPath8565_00000079478967223499386590000017964938219301137564_" class="st16" d="M689.2,293.1
									c13.1,9.8,31.4,2.6,45.1-1.3c18.3-5.2,35.9-11.8,54.2-13.7c8.5-1.3,17.6-2,26.1-0.7c10.5,1.3,17.6,5.9,26.8,10.5
									c0.7,0.7,1.3,0.7,2,0.7c2,2,5.2,0,3.9-2.6c0,0,0-0.7-0.7-0.7c0-0.7,0-2-0.7-2.6l-1.3-1.3c-6.5-11.8-17-22.9-26.8-32
									c-9.1-8.5-18.9-15-32.7-14.4c-16.3,0.7-34,6.5-49.7,9.8c-17.6,3.9-35.3,7.2-52.3,13.1c-1.3,0.7-0.7,1.3,0.7,1.3
									c15-1.3,30.1-3.9,45.1-7.2c-9.8,9.1-16.3,22.9-18.3,35.9c-0.7,0-1.3,0-2,0.7c0.7-5.2,0.7-9.8,1.3-15
									c0.7-5.2,3.3-10.5,3.3-15.7c0-1.3-2-2-2.6-1.3c-6.5,7.8-7.2,22.2-5.2,32c-5.9,0.7-11.1,0-15.7-4.6
									c-5.2-5.9-5.9-14.4-7.8-22.2c-0.7-2-3.3-2-3.9,0C678.1,272.9,679.4,286.6,689.2,293.1L689.2,293.1z M760.4,272.2
									c3.3-3.9,5.9-9.1,9.8-13.1c3.9-4.6,8.5-8.5,13.1-12.4c-3.3,6.5-5.9,15-5.2,21.6c-3.9,0.7-7.8,1.3-11.1,2
									C765,271.6,763,272.2,760.4,272.2L760.4,272.2z M831,272.2c-10.5-4.6-23.5-5.9-35.3-5.2c0.7-1.3,1.3-2,2.6-3.3
									c2.6-3.3,5.9-5.2,8.5-7.8c0.7-0.7,0.7-2.6-1.3-2.6c-6.5,2-11.8,7.8-15,13.7c-2,0-4.6,0.7-6.5,0.7l2-9.8
									c1.3-5.2,3.3-10.5,4.6-15.7c9.1,1.3,17.6,5.2,26.1,12.4C821.8,260.5,826.4,266.3,831,272.2L831,272.2z M721.9,273.5
									c3.9-7.8,9.1-14.4,13.7-21.6v-0.7c13.1-2.6,26.1-5.9,39.2-7.8c2.6-0.7,5.9-0.7,8.5-0.7c-5.9,3.3-11.1,7.8-15.7,12.4
									c-4.6,5.2-11.1,12.4-12.4,19.6c-7.2,2-14.4,4.6-20.9,7.2c6.5-9.8,13.7-18.9,21.6-28.7c0.7-1.3-0.7-2-2-1.3
									c-10.5,7.8-18.9,19.6-24.2,31.4c-2.6,0.7-5.9,2-8.5,2.6c-1.3,0.7-2.6,0.7-3.9,1.3C718.6,282,719.9,277.4,721.9,273.5
									L721.9,273.5z"/>
							</g>
						</g>
					</g>
					<g id="svga-group-beardwrap_00000008832298465034023060000007803139383372812187_" transform="matrix(1,0,0,1,0,0)">
						<g id="svga-group-beard-single-move_00000090270835989420576740000017544577780334179747_" transform="matrix(1,0,0,1,0,0)">
							
								<g id="svga-group-beard-single_00000155859642065369218400000008050716849645349265_" transform="matrix(0.9499999,0,0,0.9499999,4.993998597291181,6.389197920887369)">
								<path id="SvgjsPath8072_00000183971869724736426770000006622580528924199598_" class="st14" d="M775.6,700.2 M762.9,706.6
									c0,0,2.7-36.7-12.9-40.7c-30-7.7-44.6-15.4-68.8-20.3c-40.7-8.1-67.6,16.7-67.6,16.7s-36.3-27.3-78.4-15
									c-45,13.2-55.5,13.5-65.1,16.7c-17,5.6-12.1,28.4-14.6,37.5c-11.1,0-39.2-15.7-47.7-28.1c-12.4-18.3-39.9-91.5-47-127.4
									c-4.6-22.9-9.8-85.6-11.1-92.1c-1.3-6.5-18.3-3.9-22.2,3.9c-3.9,7.8-15.7,139.2-15.7,139.2c-2,47.7-5.9,107.8,13.7,144.4
									c11.8,25.5,68.6,102.6,68.6,102.6l-3.9-13.7c31.4,30.1,99.3,79.7,99.3,79.7l-1.3-8.5c22.9,18.3,109.8,73.8,109.8,73.8
									l1.3-8.5l13.7,9.8c0,0,32-3.9,51-17.6c18.9-13.7,68.6-53.6,68.6-53.6l1.3,9.8c30.1-26.1,73.2-70.6,73.2-70.6l-3.9,18.9
									c0,0,84.9-90.8,95.4-120.9c8.5-24.2,15-58.1,13.1-115.6c-4.6-83-15.7-160.1-17.6-169.2v0c-2.6-8.5-18.9-13.7-20.9,1.3
									c-9.8,70.6-37.2,208.4-72.5,230.6C796.6,692.7,771,704.9,762.9,706.6z M729.9,749.2c-7.2,8.5-71.9,71.9-74.5,68.6
									c-2.6-3.9-7.2-34.6-7.2-34.6c-11.1,3.9-84.3-1.3-84.3-1.3c0,7.2-7.2,35.9-7.2,35.9l-69.9-71.9c0,0,0-28.1-2-40.5
									c2,0,3.3,0,5.2-0.7c31.4-2.6,98.6-4.6,124.1-12.4c24.2,7.2,87.5,9.8,120.2,11.8C734.5,713.9,735.8,742,729.9,749.2
									L729.9,749.2z"/>
								<path id="SvgjsPath8073_00000150068475673248763000000014615032940031849355_" class="st16" d="M324.2,527.1
									c2-17,3.3-34.6,5.2-51.6c0-1.3-0.7-1.3-1.3-1.3l2-17.6c0-1.3-2-1.3-2,0c-1.3,11.1-2.6,21.6-3.3,32v0.7
									c-2,12.4-3.3,24.8-2.6,37.9C321.6,528.4,324.2,528.4,324.2,527.1L324.2,527.1z M320.9,579.3c1.3-18.9,1.3-37.9,2-56.8
									c0-1.3-2-1.3-2,0c-0.7,18.9-2,37.9-2,56.8C319,580.6,320.9,580.6,320.9,579.3z M308.5,604.2c-2,30.7-1.3,63.4,3.9,93.4
									c0,0.7,1.3,0.7,1.3,0c-0.7-31.4-2.6-62.7-3.3-93.4C309.8,602.9,308.5,603.5,308.5,604.2z M319,576.1
									c-1.3,5.2-2,11.1-3.3,16.3c0.7-17.6,1.3-35.3,2.6-53.6c0-1.3-2-1.3-2-0.7c-5.2,28.1-7.2,56.8-4.6,84.9
									c-1.3,17-0.7,33.3,2,49.7c0,1.3,2.6,1.3,2.6-0.7c-0.7-32.7-0.7-64.7,3.9-97.3C321.6,575.4,319.6,575.4,319,576.1z
									 M344.4,766.2v-0.7c0-0.7-0.7-0.7-0.7-1.3c-5.9-13.7-10.5-27.4-14.4-41.8c0.7,1.3,2.6,0.7,2-0.7
									c-6.5-31.4-11.1-61.4-10.5-93.4c0-1.3-1.3-1.3-2,0c-2,26.1-0.7,52.9,5.9,78.4c-0.7,0-2,0-2,1.3c1.3,12.4,3.9,25.5,7.8,37.2
									c-5.2-9.8-9.8-19.6-13.1-31.4c0-1.3-2-0.7-2,0c-0.7-5.9-1.3-11.8-2-17c0-1.3-1.3-1.3-2,0c-0.7,13.7,1.3,30.7,7.2,43.1
									c0,0.7,1.3,0,1.3-0.7c-1.3-6.5-3.3-13.1-3.9-19.6c0-1.3,0-2-0.7-3.3c2.6,15.7,9.8,32.7,20.3,44.4c2.6,6.5,5.9,12.4,9.8,18.9
									c0.7,1.3,3.3,0,2.6-1.3C347.7,774.7,345.7,770.1,344.4,766.2L344.4,766.2z M347.1,727c0-1.3-2-1.3-2,0
									c-2,28.7,3.9,59.4,21.6,83c1.3,2,3.9,0,3.3-2C355.5,782.5,347.1,757,347.1,727z M365.3,771.4c-0.7-2-3.3-1.3-3.3,0.7
									c3.9,26.8,14.4,52.9,34,71.9c1.3,1.3,3.3-0.7,2-2C383.6,820.4,371.2,798.2,365.3,771.4z M381,796.2c-0.7-2-3.9,0-2.6,1.3
									c13.7,28.7,33.3,55.5,58.8,75.1c1.3,0.7,2.6-0.7,1.3-2C415.6,848.5,396,825,381,796.2L381,796.2z M418.9,830.9
									c-1.3-1.3-3.3,0-2.6,1.3c17.6,26.1,37.2,51.6,63.4,70.6c1.3,0.7,2.6-1.3,1.3-2C460.1,877.9,437.9,856.3,418.9,830.9
									L418.9,830.9z M533.2,922.3c-0.7-0.7-0.7-0.7-1.3,0c-4.6-7.2-11.8-13.7-18.3-19.6c-1.3-1.3-3.9,0.7-2,2
									c7.2,7.2,12.4,15.7,19.6,22.2c0.7,0.7,2,0.7,2-0.7c7.2,5.9,14.4,12.4,21.6,18.3c-20.3-14.4-41.2-28.1-61.4-42.5l5.9,3.9
									c1.3,0.7,3.3-1.3,2-2.6c-15.7-14.4-32-26.8-46.4-43.1c-0.7-1.3-2.6,0.7-2,1.3c9.1,11.8,19.6,24.2,32,34
									c-0.7-0.7-1.3-0.7-1.3-1.3c-1.3-0.7-2.6,0.7-1.3,1.3c24.2,20.3,49.7,39.9,77.7,54.9c1.3,0.7,2,0,2-1.3
									c12.4,9.8,24.8,18.9,37.9,26.1c1.3,0.7,3.3-1.3,2-2.6C580.3,955.6,555.5,940,533.2,922.3L533.2,922.3z M593.3,958.3
									l-10.5-11.8c1.3,0.7,2,1.3,3.3,2c1.3,0.7,2.6-0.7,1.3-2c-3.9-4.6-9.1-9.1-13.7-13.7c-2.6-2.6-5.2-5.2-7.2-8.5l5.2,5.2
									c3.3,3.3,6.5,7.2,10.5,10.5c1.3,0.7,2.6,0,2-1.3c-5.9-7.8-13.7-14.4-20.3-20.9c-0.7-0.7-2,0-2,0.7c0-0.7-0.7-0.7-0.7-0.7
									c-0.7-1.3-2.6,0-2.6,0.7c-6.5-7.8-13.7-15-20.9-22.2c-1.3-1.3-2.6,0.7-1.3,1.3c10.5,12.4,20.3,25.5,32,36.6
									c0.7,0.7,1.3,0,2-0.7c2.6,3.3,5.9,6.5,9.1,9.8c-1.3,0-2.6,2-1.3,3.9l13.1,14.4c3.9,4.6,7.8,9.1,12.4,13.1
									c1.3,1.3,3.3-1.3,2.6-2.6C601.8,966.7,597.3,962.8,593.3,958.3L593.3,958.3z M603.1,956.9c-1.3-1.3-3.9,0.7-2.6,2.6
									c2,2.6,3.9,4.6,6.5,6.5c1.3,0.7,2-0.7,1.3-1.3C607.7,962.2,605.1,959.6,603.1,956.9L603.1,956.9z M340.5,532.3
									c1.3-15,1.3-30.1,1.3-45.1c0-1.3-2-1.3-2,0c-1.3,15-2,30.1-1.3,45.1C338.6,533.6,340.5,533.6,340.5,532.3z M346.4,588.5
									c2-18.9,2.6-37.9,1.3-56.8c0-1.3-2-1.3-2.6,0c-2,18.9-2,37.9-1.3,56.8C344.4,589.8,346.4,589.8,346.4,588.5z M348.4,631
									c3.9-18.9,5.9-39.9,7.8-59.4c0-1.3-1.3-1.3-2,0c-3.9,19.6-7.2,39.2-8.5,58.8C345.1,632.3,347.7,632.3,348.4,631z M356.8,663
									c2-17,2-34,3.3-51c0-1.3-2-1.3-2,0c-1.3,17-3.3,34-3.3,51C354.9,664.3,356.8,664.3,356.8,663z M358.8,685.2
									c-0.7,18.3-0.7,37.2,2,54.9c0,1.3,2,0.7,2,0c-0.7-18.3-2-36.6-1.3-54.9C361.4,683.9,358.8,683.9,358.8,685.2z M375.1,779.2
									c-3.9-22.9-6.5-44.4-4.6-67.3c0-2-2.6-2-3.3,0c-2.6,22.9-2.6,46.4,4.6,67.9C372.5,781.9,375.8,781.2,375.1,779.2
									L375.1,779.2z M394.1,808c-5.2-17.6-10.5-35.3-13.1-52.9c0-1.3-2.6-1.3-2.6,0.7c2,18.3,5.9,36.6,13.7,53.6
									C392.8,810,394.7,809.3,394.1,808z M411.1,822.4c0.7,1.3,2.6,0.7,2.6-1.3c-4.6-13.7-11.1-26.1-15-39.9
									c-0.7-2-3.9-1.3-3.3,0.7C398.7,796.2,403.2,810.6,411.1,822.4z M432.6,831.5c2,5.9,4.6,10.5,7.8,15c0.7,1.3,2.6,0.7,2.6-0.7
									c-3.3-13.1-10.5-25.5-14.4-38.5c-0.7-2-3.3-1.3-2.6,0.7c1.3,5.2,2.6,10.5,3.9,16.3c-3.9-7.8-8.5-15.7-11.1-24.8
									c-0.7-2-3.9-1.3-3.3,0.7c3.3,10.5,7.8,22.2,15,31.4C431.3,832.2,432,832.2,432.6,831.5L432.6,831.5z M524.7,902.7
									c1.3,0.7,2.6-0.7,1.3-1.3c-9.8-11.1-20.9-22.2-30.7-33.3c-1.3-2-3.3-4.6-4.6-6.5c-1.3-2-3.9,0-2.6,1.3
									c5.9,11.1,12.4,23.5,22.9,32c1.3,0.7,3.3,0,2-2c-0.7-1.3-1.3-2.6-2.6-3.3C515.6,894.9,520.2,898.8,524.7,902.7L524.7,902.7z
									 M539.1,910.6C539.1,910.6,539.8,910.6,539.1,910.6c5.9,6.5,11.8,13.1,18.3,18.3c0.7,0.7,2-0.7,1.3-1.3
									c-10.5-11.1-20.9-21.6-29.4-33.3c-0.7-0.7-1.3-0.7-1.3,0c-0.7-0.7-1.3-2-2-2.6c-1.3-1.3-2.6,0.7-2,2
									C528.7,898.8,533.2,905.3,539.1,910.6L539.1,910.6z M596.6,943.2c-1.3-1.3-3.3,0-3.3,1.3l-0.7-0.7
									c-3.3-3.9-7.2-7.2-10.5-11.1c-0.7-0.7-2.6,0.7-2,1.3c2.6,3.9,5.2,7.8,8.5,11.1c2.6,3.3,4.6,7.8,8.5,9.1
									c0.7,0,1.3-0.7,1.3-0.7c0-0.7-0.7-1.3-0.7-2l4.6,4.6c2.6,3.3,5.2,7.2,8.5,10.5c1.3,1.3,2.6,0,2-2
									C610.3,956.3,603.1,949.1,596.6,943.2L596.6,943.2z M887.3,452.6c-0.7-1.3-2.6,0-2.6,0.7c7.2,15,11.8,30.1,15,45.7
									c-0.7-0.7-2.6,0-2,0.7c2.6,31.4,3.9,63.4,5.9,95.4c-3.3-13.7-6.5-27.4-11.1-41.2c-0.7-1.3-3.3-0.7-2.6,0.7
									c12.4,42.5,19.6,84.9,19.6,129.4c0,1.3,3.3,1.3,3.3-0.7c0.7-26.1-2-52.3-7.2-77.7c0.7,0,0.7-0.7,0.7-0.7
									c2.6-28.7,0.7-57.5-3.3-85.6c0.7,0,1.3,0,1.3-0.7C905,495.7,899.1,473.5,887.3,452.6L887.3,452.6z M894.5,733.5
									c-7.2,18.3-17,34-28.1,50.3c-1.3,1.3,1.3,3.3,2.6,2c14.4-13.7,23.5-32.7,28.1-51.6C897.8,732.2,895.2,732.2,894.5,733.5z
									 M900.4,615.9c0-1.3-2.6-1.3-2.6,0c3.3,34.6,3.3,69.2,5.2,103.9c-0.7,5.2-1.3,10.5-3.3,16.3c-2.6,9.1-7.2,17-12.4,25.5
									c-0.7,0.7-0.7,1.3-0.7,2c-0.7,1.3,0.7,2.6,2,1.3c7.2-9.1,13.7-21.6,17-34c0.7,0,1.3-0.7,1.3-1.3
									C910.2,691.7,905.6,652.5,900.4,615.9L900.4,615.9z M828.5,820.4c-5.9,14.4-15,26.8-24.8,38.5c-0.7,0.7,0.7,2,1.3,1.3
									c12.4-10.5,20.3-23.5,26.1-38.5C831.8,819.8,829.2,818.4,828.5,820.4z M808.9,831.5c-13.7,18.3-28.1,35.3-43.8,51.6
									c1.3-2.6,2.6-5.9,3.9-9.1c0.7-1.3-2-2.6-2.6-0.7c-3.9,7.8-8.5,15.7-13.7,22.2c-2.6,2.6-5.9,5.9-8.5,9.1
									c-0.7,0.7-0.7,1.3,0,2c-5.2,5.9-11.8,11.1-17.6,16.3c-0.7,0.7,0,2,1.3,1.3c9.8-5.2,18.3-13.1,25.5-21.6
									c24.2-18.3,45.7-43.1,59.4-69.2C813.5,831.5,810.2,829.6,808.9,831.5L808.9,831.5z M740.3,890.3
									c-13.7,18.3-29.4,34.6-44.4,51.6c-1.3,1.3,0.7,3.9,2,2.6c18.3-13.7,34-33.3,45.7-52.3C744.9,889.7,741.6,888.3,740.3,890.3
									L740.3,890.3z M709,923.6c2-2-1.3-4.6-2.6-2.6c-12.4,12.4-26.1,22.9-39.9,33.3c2.6-3.3,5.9-6.5,8.5-9.8
									c0.7-1.3-0.7-2.6-1.3-1.3c-12.4,11.8-26.1,20.9-39.2,31.4c-1.3,1.3,0.7,2.6,2,2c7.8-3.3,14.4-7.8,20.9-13.1
									c0.7,0.7,1.3,0.7,2,0.7C677.6,955,694.6,939.3,709,923.6L709,923.6z M641,960.9c-8.5,4.6-18.9,10.5-24.8,18.9
									c-0.7,1.3,0.7,2.6,2,2c8.5-5.2,15-13.1,24.2-18.3C643.6,962.8,642.3,960.2,641,960.9z M620.1,969.4c0.7-1.3-1.3-2-2-1.3
									c-1.3,2-2.6,3.3-2.6,5.2c0,0.7,0.7,1.3,1.3,0.7C618.2,973.3,618.8,971.3,620.1,969.4L620.1,969.4z M457.5,857
									c-7.2-11.1-14.4-21.6-17.6-34.6c-0.7-1.3-2.6-0.7-2,0.7c3.3,13.1,8.5,26.1,18.3,35.3C456.8,859.6,458.1,858.3,457.5,857z
									 M473.8,867.4c-3.9-9.8-11.8-18.9-17.6-27.4c-1.3-1.3-3.3,0-2.6,1.3c5.9,9.1,11.1,19.6,18.3,27.4
									C472.5,869.4,474.4,868.8,473.8,867.4L473.8,867.4z M486.9,875.3c-3.9-11.1-11.8-21.6-17-32.7c-0.7-1.3-3.9-0.7-2.6,1.3
									c4.6,11.1,9.1,24.2,17.6,32.7C485.5,877.2,487.5,876.6,486.9,875.3z M501.2,887.7c-4.6-10.5-12.4-20.3-17-30.7
									c-0.7-2-4.6-0.7-3.3,1.3c4.6,10.5,9.8,22.9,18.3,31.4C500.6,891,501.9,889.7,501.2,887.7L501.2,887.7z M614.2,947.8
									c0.7,3.3,2,5.9,2.6,9.1c0.7,2.6,1.3,5.9,3.3,8.5c1.3,1.3,3.9,1.3,3.9-1.3c0-2.6-1.3-5.9-2.6-8.5c-1.3-3.3-2-5.9-3.3-9.1
									C616.9,944.5,613.6,945.2,614.2,947.8z M413,737.4c-1.3-10.5-3.3-20.3-5.9-30.7c0-0.7-1.3-0.7-1.3,0
									c1.3,10.5,3.3,20.3,5.2,30.7C412.4,738.1,413,738.1,413,737.4L413,737.4z M422.8,759c-2.6-11.1-5.2-22.2-5.9-34
									c0-1.3-2-1.3-2,0c0.7,11.8,2,23.5,5.9,34.6C421.5,760.3,422.8,760.3,422.8,759z M433.9,779.9c-1.3-11.8-3.9-23.5-6.5-35.3
									c0-1.3-2-0.7-2,0.7c2,11.8,3.3,23.5,6.5,35.3C432,781.2,433.9,780.6,433.9,779.9z M435.9,765.5c1.3,11.8,4.6,22.9,11.1,32.7
									c0.7,0.7,2,0,1.3-0.7c-5.2-10.5-8.5-20.9-10.5-32C437.9,764.2,435.9,764.2,435.9,765.5L435.9,765.5z M445,773.4
									c2.6,12.4,6.5,24.8,14.4,35.3c0.7,0.7,2,0,1.3-0.7c-5.2-11.8-10.5-22.9-13.1-35.3C447,770.8,445,771.4,445,773.4L445,773.4z
									 M457.5,785.1c4.6,13.7,9.8,28.7,18.3,40.5c0.7,0.7,2.6,0.7,2-0.7c-5.9-13.7-12.4-26.1-17.6-40.5
									C460.1,782.5,456.8,783.2,457.5,785.1L457.5,785.1z M474.4,808c3.9,8.5,7.2,17.6,12.4,24.8c0.7,1.3,2.6,0.7,2-0.7
									c-2.6-9.1-7.8-17.6-11.8-25.5C475.7,804.7,473.1,806,474.4,808z M485.5,818.4c3.9,11.1,8.5,22.9,15.7,32
									c1.3,1.3,2.6-0.7,2-1.3c-4.6-10.5-10.5-20.3-15-30.7C488.2,815.8,485.5,816.5,485.5,818.4z M498.6,837.4
									c5.9,11.1,12.4,22.9,20.9,31.4c1.3,0.7,2.6,0,2-1.3c-6.5-10.5-14.4-20.3-20.9-31.4C499.3,834.8,498,836.1,498.6,837.4z
									 M533.2,874c-2.6-5.9-7.8-11.8-11.1-17.6c-0.7-0.7-2,0-1.3,0.7c3.9,5.9,7.2,12.4,11.1,17.6
									C531.9,875.9,533.2,874.6,533.2,874z M547.6,845.2c0,16.3,4.6,32.7,15,45.1c1.3,1.3,2.6-0.7,2-1.3
									c-7.2-14.4-12.4-27.4-14.4-43.1C550.2,843.9,547.6,843.9,547.6,845.2L547.6,845.2z M584.8,916.4
									c-5.9-13.7-13.1-26.8-18.3-41.2c-0.7-1.3-2.6-0.7-2,0.7c4.6,14.4,9.8,29.4,18.3,41.8C583.5,919.1,585.5,918.4,584.8,916.4z
									 M603.1,940.6c-7.2-13.7-15-26.1-20.3-41.2c-0.7-2-3.9-1.3-3.3,0.7c3.9,15,9.8,30.7,20.9,41.8
									C602.5,943.9,604.4,942.6,603.1,940.6z M571.1,835.4c-0.7-15.7-2-30.7-2-46.4c0-1.3-2-1.3-2.6,0c-1.3,15.7-2,31.4,1.3,46.4
									C568.5,838,571.1,837.4,571.1,835.4L571.1,835.4z M573.1,817.8c-3.3,16.3-2.6,34,4.6,49c0.7,1.3,2.6,0.7,2.6-1.3
									c-3.9-16.3-6.5-31.4-4.6-47.7C576.4,816.5,573.7,815.8,573.1,817.8z M590.1,882.5c-0.7-10.5-2.6-20.3-3.9-30.7
									c0-2-2.6-2-2.6,0c0.7,10.5,0.7,20.9,3.9,30.7C587.5,884.4,590.1,884.4,590.1,882.5z M629.3,926.9c0,0.7,1.3,0.7,1.3,0
									c0.7-10.5-0.7-20.3-1.3-30.7c0-0.7-1.3-1.3-2-0.7v-2.6c0-0.7-0.7,0-0.7,0c0.7,1.3,0,2.6-0.7,3.9c0,0.7,0.7,0.7,0.7,0.7
									c0.7-0.7,0.7-1.3,0.7-2v0.7C628,906.6,628.6,916.4,629.3,926.9L629.3,926.9z M639.1,937.3c0.7-9.1,0-18.9,0.7-28.7
									c0-1.3-2.6-1.3-2.6,0c-0.7,9.1-2,19.6-0.7,28.7C636.5,939.3,639.1,938.7,639.1,937.3z M649.5,931.5c1.3-9.1,0-19.6,0-28.7
									c0-2-3.3-2-3.3,0c0,9.1-1.3,19.6,0,28.7C647.6,932.1,649.5,932.8,649.5,931.5z M639.1,868.1c-0.7-13.7-4.6-27.4-7.8-40.5
									c-0.7-1.3-2-0.7-2,0.7c3.3,13.1,5.2,26.8,7.8,39.9C637.8,868.8,639.7,868.8,639.1,868.1L639.1,868.1z M643,844.6
									c-1.3-7.2-2.6-14.4-4.6-21.6c0-0.7-2-0.7-1.3,0.7c1.3,7.2,2.6,14.4,4.6,21.6C641.7,845.2,643,845.2,643,844.6z M647.6,834.8
									c0-11.1-3.3-22.9-6.5-34c-0.7-1.3-3.3-0.7-2.6,0.7c3.3,11.1,4.6,22.2,6.5,33.3C645,836.1,647.6,836.1,647.6,834.8
									L647.6,834.8z M652.8,835.4c-0.7-14.4-4.6-29.4-9.1-43.1c0-0.7-1.3-0.7-1.3,0.7c3.9,14.4,5.9,28.7,8.5,43.1
									C650.8,837.4,652.8,836.7,652.8,835.4L652.8,835.4z M680.9,877.9c-2,18.9-5.9,37.2-9.8,55.5c-0.7,1.3,1.3,2,2,0.7
									c7.2-17.6,9.8-37.2,9.8-56.2C682.8,876.6,680.9,876.6,680.9,877.9z M690.7,917.7c6.5-9.1,8.5-22.9,9.8-34c0-2-3.3-2-3.3,0
									c-0.7,5.9-2,11.8-3.3,17.6c-1.3,5.2-3.9,10.5-4.6,15.7C688.7,917.7,690,918.4,690.7,917.7z M701.8,913.8
									c6.5-9.1,9.8-21.6,11.8-32c0.7-2.6-3.3-3.3-3.3-0.7c-2.6,11.1-7.8,20.9-11.1,31.4C698.5,914.5,701.1,915.1,701.8,913.8
									L701.8,913.8z M713.5,907.3c2.6-3.3,3.3-7.2,5.2-11.1c2-4.6,3.3-9.1,5.2-14.4c0.7-2.6-2.6-3.3-3.9-0.7
									c-2,4.6-3.3,9.1-5.2,13.1c-1.3,3.9-3.9,7.8-3.9,11.8C711.6,907.3,712.9,907.9,713.5,907.3L713.5,907.3z M727.9,896.2
									c4.6-7.8,6.5-17,6.5-26.1c0-2-2.6-2-3.3,0c-0.7,9.1-3.3,17-5.9,24.8C725.3,896.2,727.3,897.5,727.9,896.2z M754.1,849.2
									c-2.6,7.2-6.5,14.4-8.5,21.6c0,0.7,1.3,1.3,1.3,0.7c3.9-6.5,5.9-14.4,9.1-21.6C756.7,847.8,754.7,847.2,754.1,849.2
									L754.1,849.2z M774.3,825.6c-2,5.2-3.9,11.1-5.9,16.3c-2,5.2-4.6,10.5-5.9,16.3c0,1.3,1.3,2,2,0.7
									c5.9-9.1,9.1-22.2,12.4-32.7C778.2,824.3,775,823.7,774.3,825.6z M777.6,851.8c3.9-8.5,5.9-18.9,7.8-27.4
									c0.7-1.3-2-2-2.6-0.7c-3.3,8.5-7.2,18.3-7.8,27.4C775,852.4,776.9,853.7,777.6,851.8z M795.9,820.4c-0.7,3.3-1.3,5.9-2,9.1
									c0,0.7,1.3,1.3,1.3,0c1.3-2.6,1.3-5.9,2-9.1C797.8,819.8,795.9,819.1,795.9,820.4z M814.8,783.8
									c-0.7,12.4-3.3,24.2-5.2,36.6c0,2,2.6,2,3.3,0.7c4.6-11.1,5.2-24.8,5.2-36.6C818.1,781.2,814.8,781.2,814.8,783.8z
									 M822.6,815.2c3.3-9.8,3.3-21.6,5.2-32c0-1.3-2-2.6-2.6-0.7c-2,10.5-5.2,22.2-4.6,32.7C820.7,816.5,822.6,816.5,822.6,815.2
									L822.6,815.2z M827.2,803.4c0,1.3,2,1.3,2.6,0.7c2-3.9,2-8.5,2.6-12.4c0.7-4.6,1.3-9.8,2-14.4c0.7-2-2.6-3.3-3.3-0.7
									l-2.6,15C827.9,795.6,827.2,799.5,827.2,803.4L827.2,803.4z M876.9,770.8c0.7-0.7-1.3-2-2-0.7c-4.6,8.5-9.1,17.6-13.7,26.1
									l-3.9,5.9c2.6-5.9,4.6-12.4,5.9-18.3c0.7-2-2-2-2.6-0.7c-7.2,18.3-17,34-28.1,50.3c-1.3,1.3,1.3,3.3,2.6,2
									c3.9-3.9,7.8-8.5,11.1-13.1h0.7C860.5,808.6,870.3,788.4,876.9,770.8L876.9,770.8z M841.6,793c2.6-7.2,3.3-15.7,3.9-23.5
									c0.7-2-2.6-2.6-2.6-0.7c-1.3,7.8-3.3,15.7-3.9,24.2C839,793.6,841.6,794.3,841.6,793L841.6,793z M845.5,757
									c0-19.6-2-38.5-3.9-58.1c0-1.3-2.6-1.3-2.6,0c0.7,19.6,0.7,39.2,3.9,58.1C842.9,759,845.5,758.3,845.5,757z M850.1,733.5
									c0-10.5-2.6-21.6-3.9-32c0-1.3-2.6-1.3-2.6,0.7c1.3,10.5,2,21.6,4.6,32C848.8,734.8,850.1,734.8,850.1,733.5L850.1,733.5z
									 M853.4,706.7c0.7-10.5-2-21.6-3.3-32.7c0-1.3-2-1.3-2,0c0.7,11.1,0,22.2,2.6,32.7C851.4,708.7,853.4,708.7,853.4,706.7
									L853.4,706.7z M858.6,670.8c0.7-4.6,0-10.5,0-15c0-1.3-2.6-1.3-2.6,0c0,5.2-0.7,10.5,0,15
									C856.6,672.1,858.6,672.1,858.6,670.8z M865.1,610.7c0-7.8-2-16.3-3.3-24.2c0-2-3.3-1.3-2.6,0.7c1.3,7.8,1.3,15.7,3.9,23.5
									C863.2,612.7,865.1,612,865.1,610.7L865.1,610.7z M870.3,595c0-10.5-2.6-21.6-4.6-32c-0.7-1.3-2.6-0.7-2,0.7
									c2,10.5,2.6,20.9,4.6,31.4C868.4,596.3,870.3,596.3,870.3,595z M728.6,745.9c-4.6,17-10.5,32.7-15.7,49
									c-0.7,1.3,2,2.6,2.6,1.3c8.5-15,13.1-32,15.7-49.7C731.8,744.6,729.2,744,728.6,745.9L728.6,745.9z M699.2,807.3
									c6.5-11.8,11.8-24.2,17-35.9c0.7-1.3-1.3-2.6-2-1.3c-5.9,12.4-11.8,24.2-17,36.6C697.2,808,698.5,808,699.2,807.3
									L699.2,807.3z M699.2,785.8c-5.2,8.5-10.5,16.3-14.4,25.5c-0.7,0.7,0.7,1.3,1.3,0.7c5.9-7.8,11.1-16.3,15.7-24.2
									C702.4,785.8,699.8,783.8,699.2,785.8z M455.5,694.3 M470.2,704.7c0,0,8.1,4,12.7,4c-6.5,17.6-3.3,43.1,5.9,58.8
									c0.7,1.3,2.6,0.7,2.6-0.7c2,5.9,4.6,11.1,7.8,17c0.7,1.3,3.3,0.7,2.6-1.3c-5.9-16.3-11.8-32-16.3-49c0-0.7-0.7-0.7-0.7-0.7
									c0-7.8,0.7-15.7,0.7-23.5c16.3,0.7,34-2.6,49.7-4.6c25.5-2.6,51-4.6,75.8-9.1c0.7,0,0.7,0,0.7-0.7
									c34.6,7.8,79.7,18.3,120.2,14.4c0.7,15,2,29.4,1.3,44.4c0,1.3,2,2,2.6,0.7c3.3-14.4,4.6-30.7,0.7-45.1
									c8.9-1.1,17.7-3,22.8-4.7c1.8-0.6,4.7-5.5,1.9-6.1c-2.6,0.7-5.8,1.7-9.6,2.4c4.5-2.3,4.7-3.7,8.2-6.7c3.7-3.2,0-3.7-1.3-1.8
									c-5.4,2.6-3.6,5.9-25.2,10.5c-7.8,0.7-16.3,0-24.8-0.7c23.5-3.9,33.5-9.8,46-23.3c1.3-1.3-2.3-2.3-3-1.7
									c-13.1,11.3-32,21.7-61.4,22.3c-28.1-3.9-56.2-10.5-82.3-11.8c5.2-5.9,7.8-13.7,7.2-20.9c0-1.3-2.6-2-3.3-0.7
									c-2,11.1-7.2,18.9-15.7,25.5c-21.6,2-45.7,6.5-69.2,8.5c-18.9-3.9-34-13.7-47-28.1c-1.3-1.3-3.3,0.7-2,2
									c8.5,13.7,22.2,23.5,37.9,27.4c-18.3,1.3-35.9,0.7-51-3.9C453.4,693.9,468.1,703.9,470.2,704.7z M518.9,806
									c-4.6-12.4-11.1-24.2-17.6-35.9c-0.7-1.3-2.6,0-2,1.3c5.2,12.4,10.5,24.2,17.6,35.3C517.6,808,519.5,807.3,518.9,806
									L518.9,806z M517.6,792.3c3.9,7.8,7.8,17,13.7,23.5c1.3,1.3,3.3,0,2.6-1.3c-2.6-8.5-8.5-16.3-13.1-23.5
									C518.9,789,516.3,790.4,517.6,792.3z M501.2,667.5c-1.3-0.7-2,1.3-1.3,2c24.2,11.8,50.3,29.4,78.4,24.8c1.3,0,0.7-2,0-2
									C550.9,692.4,526.1,679.3,501.2,667.5z M618.2,672.5c36.6-5.9,73.8-15.7,110.4-9.1c0.7,0,1.3-1.3,0.7-1.3
									c-30.7-16.3-80.4-0.7-111.7,7.8C615.6,669.9,616.2,673.1,618.2,672.5z M475.7,678.8c46.4-26.8,89.5-18.3,139.2-7.8
									c2,0.7,2.6-2,0.7-2.6c-44.4-17-102.6-26.8-141.1,7.8C473.1,677.5,474.4,679.4,475.7,678.8z"/>
							</g>
						</g>
					</g>
					
						<g id="svga-group-mustache-single-move_00000176765155867207862390000007697828305066215059_" transform="matrix(1,0,0,1,0,0)">
						<g id="svga-group-mustache-single_00000129168255886063631180000001514558222015912602_" transform="matrix(1,0,0,1,0,0)">
						</g>
					</g>
					<g id="svga-group-nose-single-move_00000121957626358169366490000001282423055710219967_" transform="matrix(1,0,0,1,0,0)">
						<g id="svga-group-nose-single_00000018237634519160374720000014930997862540926655_" transform="matrix(1,0,0,1,0,0)">
							<path id="SvgjsPath4261_00000155845165207264931910000013979767302159963029_" class="st3" d="M621.6,553.1
								c1.7,5.4,24.4,29.7,24.8,42.9s-13.6,26.4-31,14.4c0,0-16.1,12.3-31,10.7c-14.9-1.6-23.1-12-23.1-12s-14,5.4-26,1.2
								s-14.8-18.6-6.2-31.8c8.7-13.2,23.5-35.9,26.8-48.7C559.3,517.2,602.2,493.3,621.6,553.1z"/>
							<path id="SvgjsPath4262_00000083802165009828321230000007105214468095710370_" class="st6" d="M621.3,550.2
								c-1-1.3-3.3,0.4-2.4,1.8c6.1,9.3,12.7,18.5,18.4,28.2c3.9,6.5,7.7,14.7,5,22.6c-4.4,12.9-15.8,12.2-25,7.3
								c3.5-4.4,5.5-9.7,5-15.4c-0.1-1.4-2.1-2.7-3.1-1.3c-9.1,11.5-15,23.5-31.9,24.2c-18,0.7-29.5-13.8-34.3-29.5
								c-0.4-1.4-2.3-1-2.4,0.3c-0.5,7.2,1.8,14.1,5.7,20c-2.6,0.5-5.2,1-7.8,1.1c-8.4,0.5-9.7-0.1-15.2-7.1
								c-5.8-7.3-5.8-9.1-2.6-17.3c1.5-3.8,3.8-7.1,5.9-10.5c7.1-11,13.3-22.1,18-34.4c9.3-24.4,13.4-51.3,8.9-77.2
								c-0.2-1.1-1.9-0.8-1.9,0.3c-0.1,20.9-1.4,41.5-7.5,61.7c-6.3,20.8-18.4,36.5-28.4,55.3c-5.2,9.7-7.4,22.6,1.5,31
								c8.8,8.4,22.4,5.7,32.7,1.8c6.1,6.7,14.6,11.2,23.6,12.1c10.1,0.9,23.4-4,31.6-12.3c9.5,10.5,27.6,5.6,32.4-7.8
								C654.6,584.6,632.4,564.2,621.3,550.2L621.3,550.2z"/>
							<path id="SvgjsPath4263_00000136409716767028816640000017927310200999659649_" class="st17" d="M600.1,568.8
								c-5.8-5.4-15-7-21.6-2c-2.4,1.8-3.8,4.1-4.4,6.5c-1.1,0.4-2.2,1-3.1,2c-5,4.8-2.9,12.4,1.4,16.9c3.6,3.9,9.5,5.7,14.6,5.4
								c6.3-0.3,12.1-3.3,15.6-8.7C606.8,582.7,605.5,573.9,600.1,568.8L600.1,568.8z"/>
						</g>
					</g>
					<g id="svga-group-hair-front_00000000930757497053364360000014137143583178872973_" transform="matrix(1,0,0,1,0,0)">
						<path id="SvgjsPath7636_00000165955721858132433420000002821408577400909233_" class="st14" d="M891.2,231.8
							c-2-6.5-3.9-13.7-6.5-20.3c-0.7-35.3-31.4-71.9-68.6-91.5c3.3-0.7,5.2-4.6,2.6-7.8c-18.3-23.5-51-26.8-76.4-15l-0.7-0.7
							c-8.5-17.6-21.6-32.7-35.3-43.8c-2.6-2.6-7.2,1.3-4.6,3.9c7.2,7.2,13.1,15,17.6,23.5c-1.3-0.7-2.6-1.3-3.3-2
							c-30.7-39.2-92.1-56.8-138.5-51c-4.6,0.7-5.2,6.5-1.3,7.8c5.2,2,11.1,3.9,17,5.9h-17c-17.6-2.6-35.9-2.6-53.6-0.7
							c-99.3-0.7-204.5,48.3-236.5,142.4c-24.8,39.2-36.6,84.9-27.4,131.3c-2,32.7,2,66,13.1,94.1c1.3,11.1,3.9,22.9,7.8,33.3
							c7.2,47.7,22.9,94.7,51.6,133.9c2,3.3,6.5,0.7,5.2-2.6c-7.2-15.7-13.7-31.4-19.6-46.4c1.3-0.7,2.6-1.3,3.3-3.3
							c2,7.2,3.3,14.4,5.9,20.9c0.7,1.3,3.3,1.3,3.3-0.7c0-15.7,0-31.4-0.7-47c0.7,4.6,1.3,9.1,2,14.4c0.7,2.6,4.6,2,4.6-0.7
							c-1.3-27.4-1.3-54.9,0-81.7c2-15,3.9-30.7,6.5-45.7c1.3-2,2-4.6,3.3-6.5c-6.5,26.1-10.5,53.6-7.2,79c0,2,3.3,2.6,3.9,0.7
							c13.1-37.9,17-78.4,29.4-116.9c4.6-13.7,9.1-26.8,14.4-39.9c5.2-5.9,11.1-12.4,17-18.3c3.3-2,5.9-3.9,9.1-5.9
							c-25.5,32-43.8,68.6-49.7,103.9c-0.7,2,2.6,3.3,3.9,1.3c10.5-17,20.3-34,30.1-50.3c0.7,0.7,2,0.7,3.3,0
							c3.3-2.6,7.2-5.2,10.5-7.2c1.3,0.7,2.6,0.7,3.9,0c7.8-3.9,15.7-8.5,24.2-12.4c-2,2.6,1.3,6.5,4.6,5.9
							c24.8-3.9,48.3-12.4,71.9-22.2c-11.1,7.8-22.2,16.3-32.7,25.5c-8.5,5.2-16.3,11.1-24.2,18.3c-3.3,3.3,0.7,7.8,4.6,5.9
							c40.5-21.6,85.6-39.9,129.4-60.8c-28.7,16.3-58.1,30.1-87.5,45.1c-2.6,1.3-0.7,5.9,2,4.6c24.8-9.1,51.6-19.6,77.1-31.4
							c-9.1,7.8-18.9,16.3-26.8,24.8c-3.9,3.3-8.5,5.9-12.4,9.1c-4.6,3.9,0.7,11.1,5.2,9.1c7.8-2.6,16.3-5.2,24.8-8.5
							c0.7,0.7,2,0.7,3.3,0.7c38.5-7.2,76.4-33.3,106.5-57.5c5.2-3.9,9.8-8.5,14.4-13.1c-9.1,11.1-20.3,20.9-34,29.4
							c-3.9,2.6-0.7,9.1,3.9,6.5c24.2-12.4,47-32.7,63.4-56.2c6.5,35.9,24.8,69.9,53.6,88.8c12.4,18.9,24.8,39.2,38.5,58.1
							c7.2,17.6,13.1,35.3,17.6,53.6c0.7,5.2,1.3,10.5,1.3,15.7c2,40.5-10.5,76.4-26.8,113c-2,4.6,3.3,9.1,7.2,5.2
							c8.5-8.5,15.7-18.3,20.9-28.7c1.3,0.7,2.6,0,3.9-1.3c1.3,1.3,3.9,1.3,5.2-1.3c2.6-4.6,5.2-9.8,7.8-14.4c0.7-0.7,1.3-1.3,1.3-2
							V531c14.4-32,24.8-71.2,29.4-107.1c1.3-5.2,2.6-9.8,3.3-14.4c1.3,0,2.6-1.3,2.6-2.6c2-7.2,3.3-14.4,3.9-22.2
							c2-10.5,3.3-20.9,3.3-31.4c0,0.7,0.7,1.3,0.7,2.6c0.7,3.3,5.9,2.6,5.9-0.7C914.1,315.4,908.2,270.3,891.2,231.8L891.2,231.8z
							 M349.6,116.8c-2,2-4.6,3.3-6.5,5.2c9.8-9.8,20.3-18.3,32-26.1C366,102.4,357.5,109.6,349.6,116.8z M519.5,274.3
							c-22.2,9.1-44.4,18.3-66.6,28.1c33.3-17.6,66-35.3,98-53.6L519.5,274.3z M496.6,238.3c-17.6,9.8-35.3,20.3-52.3,31.4
							c22.2-17.6,43.8-34.6,69.9-47c12.4-5.9,25.5-11.8,38.5-17C534.5,216.8,515.6,227.9,496.6,238.3L496.6,238.3z"/>
						<path id="SvgjsPath7637_00000122688407867341866100000004791369311636551303_" class="st16" d="M748.8,169.7
							C724.6,254,645.6,284,574.4,318.7c-2,1.3-0.7,4.6,1.3,3.9c74.5-25.5,158.1-68.6,175.1-152.2
							C751.4,168.4,749.4,167.8,748.8,169.7z M734.4,165.1c-20.3,41.2-62.7,59.4-101.9,79.7c-43.8,22.2-87.5,43.8-130,67.9
							c-2.6,1.3,0,4.6,2,3.3c53.6-24.2,105.8-51.6,157.4-79c32-17,62.7-35.3,75.1-70.6C738.3,164.5,735.7,163.2,734.4,165.1z
							 M717.4,168.4c-44.4,30.7-92.8,52.9-144.4,69.2c-2,0.7-1.3,3.3,0.7,3.3c52.9-13.1,101.3-37.2,145-69.2
							C721.4,170.4,719.4,167.1,717.4,168.4L717.4,168.4z M640.3,171.7c-94.1,5.2-186.2,43.8-254.8,108.4c-1.3,1.3,0.7,3.3,2,2
							C461.3,221.3,545,184.7,640.3,173C642.3,173,642.3,171,640.3,171.7z M570.4,225.9c-61.4,18.3-120.9,52.3-167.9,96
							c-2,1.3,0.7,3.9,2.6,2.6c51.6-41.2,104.5-70.6,165.9-94.7C573.7,229.2,573.1,225.3,570.4,225.9L570.4,225.9z M414.3,219.4
							c-47.7,60.1-77.7,137.8-79.7,215.6c0,2.6,3.3,2.6,3.9,0c10.5-78.4,34.6-147,79.7-212.3C418.9,220,415.6,217.4,414.3,219.4
							L414.3,219.4z M360.7,266.4c-35.9,62.7-51.6,136.5-39.9,207.7c0.7,2,3.9,2,3.9-0.7c-5.2-72.5,5.9-140.5,38.5-205.8
							C364,265.8,362,264.5,360.7,266.4L360.7,266.4z M326.1,530.3c-18.3-64.7-26.8-127.4-17-194c0-2-2.6-2.6-2.6-0.7
							c-11.1,65.3-9.1,133.9,15,196C322.8,534.3,326.8,533,326.1,530.3z M361.4,134.4c-74.5,59.4-114.3,165.3-89.5,258.7
							c0.7,2,3.3,1.3,3.3-0.7c-15-97.3,14.4-189.5,88.8-254.8C366,135.8,363.3,133.1,361.4,134.4L361.4,134.4z M337.2,201.7
							c-41.8,59.4-64,132.6-54.2,205.1c0,2,3.3,2,3.3,0C283,333,298.7,264.5,339.8,203C340.5,201.1,338.5,199.8,337.2,201.7z
							 M650.8,74.3C575,44.9,480.3,39.1,408.4,82.2c-1.3,0.7,0,2.6,1.3,2c79.7-36.6,158.1-29.4,240.4-6.5
							C652.1,78.9,653.4,75,650.8,74.3L650.8,74.3z M707.6,100.5c-24.2-31.4-60.1-51-97.3-61.4c-2-0.7-3.3,2.6-0.7,3.3
							c37.2,13.1,66.6,34.6,95.4,60.8C707,104.4,708.9,102.4,707.6,100.5z M731.8,115.5c-3.9-6.5-9.8-11.8-15-17.6
							c-5.9-5.9-11.8-11.8-18.3-17c-2-1.3-4.6,1.3-2.6,2.6l17.6,17.6c5.2,5.2,9.8,11.8,15.7,16.3
							C730.5,119.4,732.5,117.5,731.8,115.5L731.8,115.5z M725.9,87.4c-2-2-5.2,0.7-3.9,3.3c3.3,4.6,6.5,9.8,9.1,15
							c2.6,5.2,3.9,11.1,6.5,16.3c1.3,2,3.9,1.3,3.9-1.3C741,109,733.1,96.6,725.9,87.4z M813.5,353.3
							c-41.8-41.8-64.7-91.5-65.3-151.6c0-1.3-2-1.3-2,0c-4.6,58.8,18.9,116.9,65.3,153.5C812.8,356.6,814.8,354.6,813.5,353.3z
							 M839.6,369.6c-0.7-2-3.9,0-2.6,2c9.8,21.6,15.7,43.1,18.3,65.3c-18.9-64-60.1-120.2-74.5-186.2c-0.7-2.6-3.9-1.3-3.9,1.3
							c5.2,32,17.6,60.1,31.4,88.8c18.3,37.9,32,76.4,47.7,115c0.7,27.4-3.3,55.5-11.8,84.3c-0.7,2,2.6,3.3,3.3,1.3
							C872.9,485.9,867,422.5,839.6,369.6L839.6,369.6z M874.2,300.4c-0.7-2-3.3-1.3-3.3,0.7c5.2,30.1,7.8,59.4,6.5,89.5
							c-2-14.4-5.9-28.7-11.1-43.1c-0.7-2-3.3-1.3-2.6,0.7c11.8,47,12.4,90.8,2,138.5c-0.7,2.6,3.3,3.3,3.9,1.3
							c7.2-22.9,10.5-46.4,10.5-69.9C887.3,379.4,886,338.9,874.2,300.4L874.2,300.4z M855.3,180.8c-1.3-2.6-5.2,0-3.9,2
							c27.4,51.6,38.5,104.5,42.5,162c0,2.6,4.6,2.6,4.6,0C901,288,883.4,231.1,855.3,180.8L855.3,180.8z M835,152.7
							c-18.9-20.3-44.4-39.2-73.8-31.4c-2,0.7-1.3,3.3,0.7,2.6c28.7-5.9,49.7,14.4,70.6,30.7C834.4,156.7,837,154,835,152.7
							L835,152.7z M812.2,260.5c-1.3-2-3.9,0-2.6,1.3c18.9,32.7,30.1,66.6,38.5,103.2c0.7,2,3.9,1.3,3.3-0.7
							C846.8,327.8,832.4,292.5,812.2,260.5z M554.1,99.2C469.2,107,391.4,154,350.3,229.8c-0.7,1.3,0.7,2,1.3,0.7
							c43.8-73.2,116.9-122.2,202.5-129.4C555.4,101.1,555.4,99.2,554.1,99.2z"/>
						<path id="SvgjsPath7638_00000067215791661515810550000013425384413874035135_" class="st15" d="M701.8,154.7
							c-45.7,29.4-93.4,51.6-145,68.6c-1.3,0.7-0.7,2.6,0.7,2.6c52.3-13.7,101.3-37.9,145-69.2C704.4,156,703.1,154,701.8,154.7
							L701.8,154.7z M724.6,161.9c-20.3,44.4-84.3,65.3-126.7,81c-1.3,0.7-0.7,2.6,0.7,2c30.1-7.8,58.1-20.3,84.9-35.9
							c18.9-11.1,37.9-23.5,44.4-45.7C727.9,161.9,725.3,160.6,724.6,161.9z M484.2,152.7c-58.1,29.4-101.9,82.3-124.1,143.1
							c-0.7,2,2,2.6,2.6,0.7c25.5-60.8,67.9-105.8,122.8-140.5C488.1,154,486.2,151.4,484.2,152.7z M563.3,110.3
							c-49,0.7-96,17.6-135.2,47c-0.7,0.7,0,2,1.3,1.3c28.1-17.6,57.5-30.1,88.2-37.9c-47,20.3-88.8,51-124.8,86.9
							c-0.7,0.7,0.7,2,1.3,1.3c37.9-36.6,81-64,128-88.2c0.7,0,0.7-1.3,0.7-2c13.1-3.3,26.8-5.2,41.2-7.2
							C565.2,112.9,565.2,110.3,563.3,110.3L563.3,110.3z M620.1,153.4c-50.3,5.9-101.3,14.4-143.7,43.1c-1.3,0.7,0,2.6,1.3,2
							c44.4-25.5,93.4-34,143.1-43.1C621.4,155.4,621.4,153.4,620.1,153.4z M808.2,254.7c-16.3-26.1-30.7-52.3-39.2-81.7
							c-0.7-2-3.3-1.3-2.6,0.7c7.2,30.1,19.6,59.4,39.9,83C806.9,257.3,808.9,256,808.2,254.7z M822.6,252
							c-11.1-10.5-17.6-26.8-24.8-39.9c-7.8-13.7-15.7-28.1-23.5-41.8c-0.7-1.3-2,0-2,1.3c7.8,17.6,16.3,34.6,25.5,51.6
							c5.9,11.1,11.1,24.8,23.5,30.7C822,254,823.3,252.7,822.6,252L822.6,252z M839.6,254c-12.4-26.8-30.7-51.6-49-75.1
							c-1.3-1.3-3.9,0.7-2.6,2c17.6,24.2,33.3,49,49,73.8C837.6,257.3,840.3,256,839.6,254z M774.3,145.6c-1.3-1.3-2.6,0.7-2,2
							c38.5,46.4,77.1,89.5,97.3,147.6c0.7,1.3,2.6,0.7,2.6-0.7C857.2,235.1,816.1,186.7,774.3,145.6L774.3,145.6z M872.9,265.8
							c-13.7-39.2-38.5-76.4-69.2-104.5c-1.3-1.3-2.6,0.7-1.3,1.3c28.1,32.7,49,66,67.3,104.5C870.3,269,873.6,267.7,872.9,265.8z
							 M560,144.2c-44.4,3.9-86.9,24.2-118.2,55.5c-0.7,0.7,0.7,2,1.3,1.3c35.9-27.4,73.2-44.4,116.9-53.6
							C561.9,146.9,561.9,144.2,560,144.2z M542.3,159.3c-22.2,4.6-43.8,13.7-62.7,24.8c-1.3,0.7,0,2.6,1.3,2
							c20.9-8.5,41.2-16.3,62.7-24.2C544.3,161.2,543.7,158.6,542.3,159.3L542.3,159.3z M665.8,168.4
							c-34.6,20.9-75.8,18.3-111.7,33.3c-2,0.7-0.7,4.6,1.3,3.9c35.9-15,79.7-10.5,111.7-34.6C668.4,169.7,667.1,167.8,665.8,168.4
							L665.8,168.4z M561.3,93.3c-59.4-13.7-130.7,13.1-182.3,42.5c-1.3,0.7,0,3.3,1.3,2.6c54.9-25.5,118.2-51.6,179.7-41.8
							C562.6,96.6,563.9,93.9,561.3,93.3L561.3,93.3z M524.1,80.2c-39.9,1.3-78.4,10.5-112.4,32c-1.3,0.7,0,2.6,1.3,2
							c35.9-17,71.2-28.7,111.1-30.7C526,83.5,526,80.2,524.1,80.2z M498.6,69.1c-17.6-1.3-35.9-0.7-52.3,6.5
							c-2,0.7-1.3,3.3,0.7,3.3c17-3.9,34-6.5,51-5.2C500.5,73,500.5,69.1,498.6,69.1z"/>
					</g>
					<g id="svga-group-glasses-single-move_00000139266699508120868340000013083251170744198844_" transform="matrix(1,0,0,1,0,0)">
						<g id="svga-group-glasses-single_00000143605704772956818260000011453676140576243349_" transform="matrix(1,0,0,1,0,0)">
						</g>
					</g>
				</g>
			</g>
		</g>
	</g>
</g>
</svg>
